<?xml version="1.0" standalone="no"?>
<!DOCTYPE svg PUBLIC "-//W3C//DTD SVG 1.1//EN" "http://www.w3.org/Graphics/SVG/1.1/DTD/svg11.dtd" >
<svg>
<metadata>
Created by FontForge 20090622 at Fri Feb 16 22:24:46 2018
 By deploy user
(c) 2011 by Jeffrey N. Levine.  All rights reserved.
</metadata>
<defs>
<font id="ArtDepartmentJNL" horiz-adv-x="733" >
  <font-face 
    font-family="Art Department JNL"
    font-weight="400"
    font-stretch="normal"
    units-per-em="1000"
    panose-1="0 0 4 0 0 0 0 0 0 0"
    ascent="800"
    descent="-200"
    x-height="496"
    cap-height="760"
    bbox="0 -180 1167 942"
    underline-thickness="20"
    underline-position="-123"
    unicode-range="U+0020-U+2122"
  />
<missing-glyph horiz-adv-x="500" 
d="M438 0h-375v800h375v-800zM125 738v-675h250v675h-250z" />
    <glyph glyph-name=".notdef" horiz-adv-x="500" 
d="M438 0h-375v800h375v-800zM125 738v-675h250v675h-250z" />
    <glyph glyph-name=".null" horiz-adv-x="0" 
 />
    <glyph glyph-name="nonmarkingreturn" horiz-adv-x="333" 
 />
    <glyph glyph-name="space" unicode=" " horiz-adv-x="251" 
 />
    <glyph glyph-name="exclam" unicode="!" horiz-adv-x="258" 
d="M220 605q-9 -65 -52 -209l-47 -153h-9q-4 27 -43 195q-29 127 -29 194q0 59 30 95q25 31 64 33q36 1 61 -28q28 -31 28 -89q0 -19 -3 -38zM197 89q0 -37 -24 -63t-57 -26q-34 0 -57.5 26t-23.5 63t23.5 63t57.5 26q33 0 57 -26t24 -63z" />
    <glyph glyph-name="quotedbl" unicode="&#x22;" horiz-adv-x="452" 
d="M214 656q-4 -51 -36 -93t-79 -58q29 25 43 54q4 7 12 39q-12 -4 -29 -4q-37 0 -63.5 22t-25.5 58t28 61t64 25q44 0 68 -32q21 -28 18 -72zM414 656q-4 -51 -36 -93t-79 -58q29 25 43 54q4 7 12 39q-12 -4 -29 -4q-37 0 -63.5 22t-25.5 58t28 61t64 25q44 0 68 -32
q21 -28 18 -72z" />
    <glyph glyph-name="numbersign" unicode="#" horiz-adv-x="511" 
d="M324 453h-106l-30 -146h105zM288 100h-39l32 156h-104l-33 -156h-39l32 156h-102l10 51h103l31 146h-113l10 51h114l33 156h40l-33 -156h104l34 156h39l-33 -156h102l-9 -51h-104l-30 -146h111l-10 -51h-113z" />
    <glyph glyph-name="dollar" unicode="$" horiz-adv-x="436" 
d="M396 204q-12 -50 -65 -85q-46 -31 -105 -37v-82h-17v81q-33 -1 -80 10q-44 12 -70 32q0 -11 8 -51q-13 2 -19 4q-9 47 -9 91q0 57 19 152q8 0 11 -1q-3 -14 -3 -29q0 -66 39 -126q43 -66 104 -64v182q-111 77 -119 85q-61 58 -54 128q4 51 42 93q51 59 131 71v102h17
v-100q70 6 116 -18q-3 22 -10 34q11 8 26 12q21 -77 21 -146q0 -23 -1 -33q-5 -29 -19 -50q-16 -28 -40 -28q-13 0 -25.5 9.5t-12.5 24.5q0 13 9.5 23t22.5 10q23 0 33 -30q11 20 11 44q0 48 -35 89q-34 42 -79 42q-7 0 -17 -2v-189l112 -88q63 -56 63 -119q0 -18 -5 -41z
M209 469v167q-41 -23 -38 -82q3 -45 38 -85zM295 160q3 56 -69 109v-168q26 6 46.5 23t22.5 36z" />
    <glyph glyph-name="percent" unicode="%" horiz-adv-x="807" 
d="M771 184q-7 -78 -58 -132q-49 -52 -115 -52q-77 0 -127 65q-46 61 -46 139q0 83 49 144q52 67 132 64q72 -2 118 -63q48 -60 48 -142q0 -15 -1 -23zM545 760h32l-324 -760h-31zM381 531q-7 -77 -58 -131q-50 -53 -116 -53q-77 0 -126 66q-46 59 -46 139q0 82 48 143
q53 68 132 65q71 -3 119 -64q48 -60 48 -141q0 -16 -1 -24zM657 103q0 191 -3 221q-4 38 -16.5 57.5t-34.5 18.5q-49 0 -57 -81q-10 -115 0 -214q5 -47 19.5 -70t39.5 -22q52 1 52 90zM267 451q0 189 -3 221q-7 76 -51 76q-49 0 -57 -81q-11 -116 0 -215q5 -47 19 -69.5
t39 -21.5q53 2 53 90z" />
    <glyph glyph-name="ampersand" unicode="&#x26;" horiz-adv-x="703" 
d="M666 590q-6 -83 -124 -132l-118 -40h2q74 3 124 -44q51 -46 51 -119q0 -99 -81 -176q-77 -71 -180 -79q-117 -8 -204 51q-96 64 -99 178q-2 80 43 147q41 62 117 103q-49 6 -78.5 37.5t-29.5 79.5q-1 72 61 119q56 41 132 44q63 3 110 -19q61 -28 61 -84q-1 -34 -25 -59
t-58 -26q-30 0 -49.5 18t-19.5 47q0 48 49 69q-18 22 -53 17q-38 -5 -61 -38.5t-25 -79.5q-3 -45 16 -74q20 -34 56 -32q1 0 19 2q10 2 18 0q10 0 14.5 -4.5t3.5 -12.5q0 -7 -2.5 -10.5t-8 -5t-11 -2t-15.5 -0.5t-18 -1q-103 -15 -109 -231q-2 -95 49 -150q47 -50 113 -49
q144 3 147 191q2 77 -5 99q-13 57 -67 60q-60 2 -79 -71q33 2 56 -12q27 -17 27 -47q0 -25 -19 -43t-49 -20q-37 -1 -57 20t-20 59q0 82 80 141q48 35 149 73q79 28 79 40q-60 25 -62 73q-1 33 21 56t55 21t54.5 -26.5t19.5 -57.5z" />
    <glyph glyph-name="quotesingle" unicode="'" horiz-adv-x="252" 
d="M214 656q-4 -51 -36 -93t-79 -58q29 25 43 54q4 7 12 39q-12 -4 -29 -4q-37 0 -63.5 22t-25.5 58t28 61t64 25q44 0 68 -32q21 -28 18 -72z" />
    <glyph glyph-name="parenleft" unicode="(" horiz-adv-x="305" 
d="M270 10v-30q-98 8 -167 119q-68 113 -68 281t68 280q69 112 167 120v-30q-58 -7 -98 -110q-40 -102 -40 -260t40 -260q40 -103 98 -110z" />
    <glyph glyph-name="parenright" unicode=")" horiz-adv-x="305" 
d="M35 -20v30q57 7 97 110q40 102 40 260t-40 260q-40 103 -97 110v30q97 -7 166 -120q69 -111 69 -280q0 -168 -69 -281q-69 -112 -166 -119z" />
    <glyph glyph-name="asterisk" unicode="*" horiz-adv-x="474" 
d="M439 496q0 -28 -39 -28q-26 0 -69 25l-65 40q32 -87 32 -124q0 -24 -16 -40.5t-40 -16.5q-23 0 -38 15t-15 38q0 26 38 122l-28.5 -21.5t-36.5 -28.5q-44 -30 -73 -30q-34 0 -34 28q0 29 60 54l82 27q-162 20 -162 59q0 14 17 25q14 8 30 8q24 0 73 -24l72 -39
q-8 18 -22 62q-15 48 -15 61q0 21 15 35.5t36 14.5q52 0 52 -56q0 -21 -31 -114l63 54q44 32 72 32q40 0 40 -30q0 -27 -67 -52l-89 -27q158 -26 158 -69z" />
    <glyph glyph-name="plus" unicode="+" horiz-adv-x="364" 
d="M329 424v-50h-122v-122h-50v122h-122v50h122v122h50v-122h122z" />
    <glyph glyph-name="comma" unicode="," horiz-adv-x="248" 
d="M98 -88q39 31 55 92q-12 -4 -29 -4q-38 0 -63.5 22.5t-25.5 57.5q0 36 27.5 61t64.5 25q39 0 62.5 -26.5t23.5 -67.5q0 -51 -33 -98q-32 -45 -82 -62z" />
    <glyph glyph-name="hyphen" unicode="-" horiz-adv-x="261" 
d="M237 351q-111 -9 -216 0q-6 17 0 55q99 15 216 0q9 -29 0 -55z" />
    <glyph glyph-name="period" unicode="." horiz-adv-x="250" 
d="M211 70q-5 -33 -29 -51.5t-57 -18.5q-37 0 -63.5 22t-25.5 58t28.5 62t67.5 24q41 -3 64 -33q20 -27 15 -63z" />
    <glyph glyph-name="slash" unicode="/" horiz-adv-x="385" 
d="M338 760h32l-323 -760h-32z" />
    <glyph glyph-name="zero" unicode="0" horiz-adv-x="709" 
d="M353 0q-142 0 -233 121q-85 109 -85 256q0 145 86 260q95 123 236 123q140 0 233 -121q84 -113 84 -257q0 -146 -86 -259q-93 -123 -235 -123zM465 409q0 142 -8 195q-20 134 -95 134q-83 0 -106 -143q-8 -51 -8 -211q0 -145 11 -213q25 -147 107 -147q96 0 96 166
q0 61 1 110q2 98 2 109z" />
    <glyph glyph-name="one" unicode="1" horiz-adv-x="302" 
d="M287 21v-8q-115 -16 -216 -14l-39 1q-9 17 -8 29v8q28 -5 42 -5q-6 130 -6 273q0 211 13 422q-21 -3 -54 -20l-4 28q69 25 129 25q45 0 81 -13q-2 0 -4 -26q-1 -21 -1 -104q0 -86 4 -213t4 -214q0 -94 -4 -157q6 0 62 2z" />
    <glyph glyph-name="two" unicode="2" horiz-adv-x="600" 
d="M564 65l-1 -52q-51 -13 -124 -13q-33 0 -143 8l2 -8q-28 -2 -44 -2q-50 0 -161 13q-6 18 -6 39q0 69 74 170l139 173q74 101 74 175q0 61 -32 108q-38 53 -95 53q-61 0 -117 -75q46 -2 77 -36q33 -34 33 -79q0 -47 -37 -81t-84 -34q-49 0 -77 40q-27 36 -27 85
q0 90 95 155q86 56 181 56q105 0 173 -63q72 -65 72 -168q0 -75 -65 -163l-117 -147q-63 -87 -60 -165l1 -15q38 -2 50 -2q112 0 155 70q34 53 34 167q0 12 -2 54l14 1h7q12 -184 11 -264z" />
    <glyph glyph-name="three" unicode="3" horiz-adv-x="642" 
d="M311 0q-113 0 -198 55q-98 63 -98 170q0 86 57 140q59 54 145 54q74 0 127 -35q60 -40 60 -112q0 -45 -27 -74.5t-71 -29.5q-31 0 -55.5 23t-24.5 53q0 33 20.5 51.5t53.5 18.5q8 0 22 -2l1 8q1 27 -15.5 45t-43.5 18q-48 0 -78 -71q-25 -54 -25 -111q0 -65 28 -111
q34 -55 95 -55q71 0 116 98q36 79 36 159q0 81 -31 121q-27 33 -102 58q-5 2 -5 10q0 12 10 23q17 -7 34 -7q39 0 63 36q21 31 21 73q0 52 -30.5 84t-80.5 32q-36 0 -64 -16q-32 -20 -35 -52q37 -22 37 -64q0 -28 -17 -46.5t-44 -18.5q-32 0 -57 22t-25 52q0 78 65 122
q55 39 138 39q91 0 167 -40q93 -48 93 -131q0 -57 -43 -91q-38 -30 -99 -36q176 -72 176 -222q0 -118 -92 -183q-81 -57 -204 -57z" />
    <glyph glyph-name="four" unicode="4" horiz-adv-x="675" 
d="M659 15v-10q-142 -5 -232 -5q-121 0 -226 6q-9 19 -8 36q29 -8 70 -9l70 -3l-5 196q-139 19 -313 12v12q0 14 3 25q216 227 334 488q24 4 54 4q56 0 113 -16q12 -124 12 -274q0 -106 -6 -232q21 -4 39 -4q38 0 47 45q1 6 1 76l25 -2q3 -46 3 -96q0 -84 -7 -174l-18 -4
q-8 74 -16 94q-19 44 -75 45q-1 -76 -9 -196h12q90 0 131 10q2 -21 1 -24zM345 691l-75 -220q-49 -138 -97 -204l155 -13l-1 106q-1 156 18 331z" />
    <glyph glyph-name="five" unicode="5" horiz-adv-x="622" 
d="M307 0q-90 0 -176 53q-96 60 -96 146q0 52 24 86q29 38 78 38q50 0 83 -30t33 -77t-30 -78.5t-77 -34.5q56 -72 130 -72q61 0 104 61q39 56 39 119q0 75 -51 134q-51 60 -126 60q-56 0 -118 -38q-8 2 -19 0l-20 -2q-6 0 -7 4q-5 90 -5 166q0 80 5 187q214 16 474 18v20
h25v-11q0 -108 -10 -205h-8l-13 1q-2 88 -44 125.5t-133 37.5q-23 0 -96 -5q0 -7 -19 -250q26 3 51 3q109 0 197 -52q105 -60 105 -161q0 -105 -100 -177q-92 -66 -200 -66z" />
    <glyph glyph-name="six" unicode="6" horiz-adv-x="647" 
d="M609 224q0 -100 -76 -164q-72 -60 -174 -60q-141 0 -233 93q-91 92 -91 234q0 161 98 292q107 141 264 141q86 0 144 -37q71 -44 71 -123q0 -56 -36 -99t-91 -43q-44 0 -73 26.5t-29 68.5q0 48 30 80t75 32q39 0 64.5 -23t28.5 -61q2 12 2 19q0 50 -39 91q-37 40 -89 40
q-81 0 -136 -126q-36 -79 -56 -195q52 26 109 26q102 0 167 -54q70 -58 70 -158zM340 414q-90 0 -90 -144q0 -89 22 -151q32 -92 103 -92q42 0 60 60q13 39 13 96q0 71 -22 138q-30 93 -86 93z" />
    <glyph glyph-name="seven" unicode="7" horiz-adv-x="578" 
d="M563 731l-4 -17h-13q-1 -1 -23 0q-35 -142 -118 -349l-144 -340q18 -2 56 0q4 -7 4 -14l-1 -11q-75 0 -291 14l-2 9q1 4 2 12l21 -2l14 1q50 139 155 380l66 149q34 80 56 153q-135 3 -217 -81q-82 -83 -89 -219q-11 -2 -16 -1h-3v31q-1 132 23 312l21 2l-3 -22
q183 2 506 -7z" />
    <glyph glyph-name="eight" unicode="8" horiz-adv-x="629" 
d="M306 0q-105 0 -189 45q-102 55 -102 151q0 82 61 140q53 51 139 71q-78 9 -127 46q-59 44 -59 115q0 92 102 147q84 45 184 45q81 0 155 -44q86 -51 86 -126q0 -132 -165 -172q89 -9 151 -56q72 -56 72 -139q0 -102 -107 -167q-94 -56 -201 -56zM310 395q-50 0 -75 -58
q-19 -42 -19 -100q0 -66 25 -129q31 -84 85 -84q53 0 80 61q21 46 21 109q0 74 -23 128q-30 73 -94 73zM287 740q-42 0 -63 -53q-16 -38 -16 -89q0 -55 20 -104q25 -64 73 -64q45 0 67 49q19 37 19 88q0 59 -21 109q-27 64 -79 64z" />
    <glyph glyph-name="nine" unicode="9" horiz-adv-x="647" 
d="M249 0q-85 0 -143 37q-71 44 -71 123q0 56 36 99t91 43q45 0 73.5 -26.5t28.5 -68.5q0 -48 -29.5 -80t-76.5 -32q-39 0 -64.5 23t-28.5 61q-1 -6 -1 -19q0 -50 38 -91q39 -40 89 -40q81 0 137 126q36 79 56 195q-52 -26 -109 -26q-101 0 -165 52q-70 55 -70 154
q0 104 76 168q71 62 176 62q139 0 229 -94q91 -92 91 -233q0 -161 -98 -292q-106 -141 -265 -141zM397 490q0 90 -19 150q-28 93 -99 93q-75 0 -75 -149q0 -75 19 -141q28 -97 83 -97q91 0 91 144z" />
    <glyph glyph-name="colon" unicode=":" horiz-adv-x="250" 
d="M211 70q-5 -33 -29 -51.5t-57 -18.5q-37 0 -63.5 22t-25.5 58t28.5 62t67.5 24q41 -3 64 -33q20 -27 15 -63zM211 400q-5 -33 -29 -51.5t-57 -18.5q-37 0 -63.5 22t-25.5 58t28.5 62t67.5 24q41 -3 64 -33q20 -27 15 -63z" />
    <glyph glyph-name="semicolon" unicode=";" horiz-adv-x="250" 
d="M211 400q-5 -33 -29 -51.5t-57 -18.5q-37 0 -63.5 22t-25.5 58t28.5 62t67.5 24q41 -3 64 -33q20 -27 15 -63zM99 -88q39 31 55 92q-12 -4 -29 -4q-38 0 -63.5 22.5t-25.5 57.5q0 36 27.5 61t64.5 25q39 0 62.5 -26.5t23.5 -67.5q0 -51 -33 -98q-32 -45 -82 -62z" />
    <glyph glyph-name="less" unicode="&#x3c;" horiz-adv-x="489" 
d="M454 0l-419 375l419 385v-70l-336 -315l336 -303v-72z" />
    <glyph glyph-name="equal" unicode="=" horiz-adv-x="364" 
d="M35 424v50h294v-50h-294zM35 324v50h294v-50h-294z" />
    <glyph glyph-name="greater" unicode="&#x3e;" horiz-adv-x="489" 
d="M35 760l419 -385l-419 -375v72l336 303l-336 315v70z" />
    <glyph glyph-name="question" unicode="?" horiz-adv-x="585" 
d="M550 555q0 -50 -62 -112l-116 -99q-62 -56 -62 -88q0 -4 2 -12h-34q-11 28 -11 53q0 49 61 135t61 152q0 54 -30 91q-33 41 -85 41q-76 0 -125 -67q46 -3 75.5 -34.5t29.5 -77.5q0 -41 -31 -68t-74 -27q-47 0 -79 24q-35 29 -35 74q0 93 84 159q77 61 173 61
q102 0 175 -51q83 -59 83 -154zM380 89q0 -36 -23.5 -62.5t-56.5 -26.5q-35 0 -58 26.5t-23 62.5t23 62.5t58 26.5q33 0 56.5 -26.5t23.5 -62.5z" />
    <glyph glyph-name="at" unicode="@" horiz-adv-x="817" 
d="M557 531l30 48h87q-158 -318 -158 -343q0 -44 46 -44q72 0 124 103q44 90 44 168q0 117 -82 187q-77 67 -197 67q-155 0 -252 -117q-93 -111 -93 -268q0 -136 95 -216q88 -76 228 -76q87 0 166 40q81 41 131 109l29 -29q-59 -75 -147.5 -117.5t-184.5 -42.5
q-160 0 -270 89q-118 96 -118 253q0 182 119 301q118 118 302 118q132 0 225 -75q101 -80 101 -209q0 -117 -61 -218q-71 -117 -178 -117q-40 0 -67.5 25.5t-27.5 64.5q-69 -78 -144 -78q-55 0 -87.5 37.5t-32.5 95.5q0 118 80 210q84 96 200 96q70 0 93 -62zM268 267
q0 -24 15 -41.5t38 -17.5q72 0 139 109q61 98 61 177q0 62 -52 62q-71 0 -139 -111q-62 -101 -62 -178z" />
    <glyph glyph-name="A" unicode="A" 
d="M718 61q-1 -20 -9 -43q-87 -18 -179 -18q-58 0 -125 8l6 26q25 -6 42 -5h14q-25 61 -63 210q-115 -10 -230 -9l-21 -92q-11 -52 -15 -93l19 -1q13 0 68 5v-18q-72 -26 -132 -26q-39 0 -78 11l13 30l59 -5l56 189l-63 3l-13 34q29 -4 84 -10l138 442q91 49 154 66
q106 -249 204 -719q36 0 71 15zM400 258q-44 205 -93 404q-5 -8 -9 -19l-26 -75q-55 -172 -91 -313q54 -2 83 -2q54 0 136 5z" />
    <glyph glyph-name="B" unicode="B" horiz-adv-x="718" 
d="M434 14q-63 0 -116 22q-164 -36 -241 -36q-3 16 10 32h9q32 0 63 6q-8 176 -8 332q0 192 10 353l-74 -1q-34 0 -59 4q-13 10 -13 18q0 10 16 10q17 0 53 -6q40 -5 54 -5q40 0 134 8q88 9 133 9q94 0 152 -31q74 -41 74 -127q0 -68 -45 -112q-40 -40 -111 -52
q91 -9 146 -55q62 -53 62 -140q0 -106 -73 -169q-69 -60 -176 -60zM376 734q-17 0 -38 -1q10 -182 8 -287h15q61 -3 83 34q19 29 19 93q0 87 -7 108q-17 53 -80 53zM421 419q-3 0 -7.5 -0.5t-13.5 -1t-16 -0.5q-30 -2 -38 -1q-2 -123 -9 -367q35 -11 61 -11q70 0 93 66
q13 36 13 125q0 93 -6 119q-17 71 -77 71z" />
    <glyph glyph-name="C" unicode="C" horiz-adv-x="638" 
d="M603 183q0 -88 -85 -139q-74 -44 -166 -44q-146 0 -234 106q-83 100 -83 247q0 163 87 279q96 128 255 128q73 0 123 -38q53 -42 53 -114q0 -56 -40 -96q-39 -40 -94 -40q-38 0 -60.5 25.5t-22.5 67.5q0 49 29 82.5t76 33.5q62 0 82 -65q-1 52 -41 87t-92 35
q-84 0 -120 -123q-23 -81 -23 -191q0 -131 32 -236q47 -153 146 -153q61 0 104 42q45 43 45 103q-2 16 -2 37q0 23 12 24q19 -7 19 -58z" />
    <glyph glyph-name="D" unicode="D" horiz-adv-x="687" 
d="M652 386q0 -211 -170 -309q-134 -77 -363 -77q-23 0 -73 2q-11 21 -10 36q21 -3 101 -3q-9 189 -9 349q0 177 10 338q-9 -1 -35 -1q-41 0 -67 3l6 32q29 -4 74 -4q46 0 111 4t111 4q145 0 233 -118q81 -106 81 -256zM320 736l-14 -1q28 -339 28 -512q0 -93 -6 -180
q126 -3 126 248q0 19 -3 102l-3 134q-6 96 -30 145q-31 67 -98 64z" />
    <glyph glyph-name="E" unicode="E" horiz-adv-x="607" 
d="M575 304h17l-4 -152q-5 -89 -18 -152l-15 1l1 19l-1 9q-115 -3 -204 -3q-183 0 -329 12q-7 14 -7 23v10q25 -7 66 -9q21 -1 65 -5q0 428 34 654l-33 -1q-38 -1 -85 10q3 19 13 32q169 -23 410 -23q41 0 76 9l2 22h7q1 0 15 -2q-5 -56 -7 -209l-12 -2l-12 2q2 18 2 27
q0 73 -55 109q-47 31 -124 29h-36q3 -60 3 -123q0 -83 -6 -159q27 -4 54 -4q24 0 46 3q4 49 3 110l22 -2v-42q1 -79 -12 -210l-17 -3q-4 77 -14 96q-18 30 -84 33q-5 -140 -19 -360q25 -4 53 -4q101 0 152 80q36 56 53 175z" />
    <glyph glyph-name="F" unicode="F" horiz-adv-x="564" 
d="M549 560l-23 -3q0 68 -42 104q-40 33 -108 33q-20 0 -84 -9q28 -130 37 -268q56 0 98 13q-1 46 -12 105l22 1q20 -102 24 -241l-17 -6q-10 49 -19 72q-20 41 -54 41q-10 0 -41 -4q12 -102 31 -345l66 9q38 6 65 15l5 -30q-237 -36 -426 -47q-9 12 -11 30q9 -1 30 -1
q9 0 51 2q33 4 51 4q-60 413 -59 626q-45 -9 -84 -9q-12 0 -34 2l8 32q87 0 248 15q182 16 235 37q2 12 -1 21l11 2l11 -1q3 -65 22 -200z" />
    <glyph glyph-name="G" unicode="G" horiz-adv-x="726" 
d="M711 394l-11 -16q-17 6 -31 5l-18 -1q11 -69 11 -120q0 -102 -40 -175l-17 31q-105 -118 -246 -118q-135 0 -232 111q-92 107 -92 245q0 158 106 279q110 125 266 125q88 0 149 -37q72 -43 72 -127q0 -53 -38 -91t-91 -38q-36 0 -57.5 24.5t-21.5 63.5q0 47 28 79.5
t72 32.5q61 0 79 -62q-2 56 -48 89q-40 30 -100 30q-113 0 -172 -150q-44 -112 -44 -246q0 -98 26 -182q37 -117 116 -117q109 0 109 193q0 25 -5 68q-7 55 -19 55q-54 0 -119 -33l-1 11q-1 17 16 42q123 42 232 42q65 0 121 -13z" />
    <glyph glyph-name="H" unicode="H" horiz-adv-x="675" 
d="M660 726l-3 -17q-29 8 -59 8q-6 -380 -43 -664q62 -2 63 -2v-7v-13q-46 -3 -106 -3q-92 0 -153 6q-8 18 -7 28v8q28 -7 43 -8q2 174 14 336q-65 -4 -151 -14q0 -170 -11 -351q7 0 63 2l1 -14v-8q-116 -16 -219 -14l-40 1q-9 17 -8 29v9q26 -6 43 -6q-7 123 -7 276
q0 196 14 425q-22 -3 -55 -20l-4 29q53 18 131 18q59 0 146 -10l-2 -18q-24 6 -47 5l-12 -1q7 -160 7 -316q76 9 153 12q10 141 30 292q-20 -1 -56 -16q-3 13 -3 17l1 10q41 11 92 11q63 0 185 -20z" />
    <glyph glyph-name="I" unicode="I" horiz-adv-x="347" 
d="M312 750l-2 -18q-24 6 -47 5l-12 -1q7 -167 7 -335q0 -187 -11 -368q7 0 63 2l1 -14v-8q-116 -16 -219 -14l-40 1q-9 17 -8 29v9q26 -6 43 -6q-7 123 -7 276q0 196 14 425q-22 -3 -55 -20l-4 29q53 18 131 18q59 0 146 -10z" />
    <glyph glyph-name="J" unicode="J" horiz-adv-x="519" 
d="M148 -152q-56 0 -94.5 35.5t-38.5 89.5q0 48 30 79t77 31q41 0 66 -19q27 -23 27 -62q0 -40 -28 -69q-28 -31 -67 -31q-51 0 -61 45q-2 -6 -2 -11q0 -31 38 -52q32 -18 65 -18q73 0 109 89q27 66 27 150q0 95 -18 307q-17 204 -14 306q-12 2 -32 0q-16 -1 -33 -1
q-15 0 -19 1q-5 10 -13 39q29 1 99 -2q92 -2 100 -2q84 0 118 8l-2 -18l-34 -8q25 -159 25 -317q0 -183 -36 -299q-50 -158 -174 -236q-56 -35 -115 -35z" />
    <glyph glyph-name="K" unicode="K" horiz-adv-x="709" 
d="M694 86l-1 -11q-43 -18 -116 -39q-83 -22 -117 -36q-85 177 -166 393l5 -357l15 -4q2 -8 2 -14l-1 -7q-128 -10 -271 -11q-9 18 -9 33v10q30 -6 64 -6q-12 143 -12 289q0 201 22 402q-33 -2 -54 -6l12 38q36 2 63 2q46 0 101 -4q81 -6 96 -14l-2 -18q-9 3 -15 3l-2 -1
q-3 0 -7.5 -0.5t-9.5 -0.5q0 -113 3 -311q125 164 177 307h-35v22q31 3 59 3q71 0 135 -18v-30l-81 15q-15 -38 -131 -174q102 -200 212 -466q37 9 63 28z" />
    <glyph glyph-name="L" unicode="L" horiz-adv-x="515" 
d="M474 384l24 -1v-34q2 -81 -11 -175q-9 -58 -25 -174l-7 -1q-6 0 -14 3l1 13l-1 13h-36q-33 -1 -132 4q-83 4 -134 4q-57 0 -93 -4q-10 19 -9 32q7 -1 91 -3q-10 349 -10 396q0 144 11 274l-39 -4q-26 -3 -38 -10q-2 6 -2 10q0 10 3 22q35 11 92 11q141 0 232 -33l-3 -18
q-31 10 -58 12q6 -135 6 -246q0 -223 -24 -426q106 11 147 126q23 68 29 209z" />
    <glyph glyph-name="M" unicode="M" horiz-adv-x="918" 
d="M890 752h13q0 -7 -13 -29q-4 1 -17 1q-37 0 -67 -6q3 -108 1 -334q-2 -290 -1 -335q50 0 64 -8v-8q0 -6 -5 -16q-27 7 -77 7q-112 0 -241 -24l-22 29q27 9 77 13q-5 28 -5 127q0 198 14 413l-244 -581q-99 229 -201 618q-27 -295 -27 -412q0 -87 9 -154q26 -2 39 -2
q39 0 70 6q-1 -25 -22 -44q-84 7 -112 12q-65 9 -108 30v17q46 -13 76 -17q26 314 66 679h-10q-50 1 -106 -28q2 24 2 25q2 15 7 25q64 10 140 10q54 0 119 -6q95 -259 152 -454l170 426q14 8 125 16q98 5 134 4z" />
    <glyph glyph-name="N" unicode="N" horiz-adv-x="750" 
d="M735 760q0 -14 -11 -22q-33 8 -64 7h-16q-31 -211 -37 -685q47 2 95 12l1 -9q0 -7 -6 -16q-73 -23 -204 -47q-202 292 -315 605q-9 -81 -9 -185q0 -165 22 -372q52 0 85 13q-5 -29 -15 -44q-150 5 -226 19l5 19q19 -3 82 -10q3 285 42 670q-64 -6 -107 -22q-4 12 -4 22
q1 5 2 14q107 17 248 17q134 -288 279 -518q6 89 6 179q0 179 -24 333q-50 -10 -97 -26q-3 20 11 46q52 6 118 6q68 0 139 -6z" />
    <glyph glyph-name="O" unicode="O" horiz-adv-x="849" 
d="M422 0q-160 0 -273 109q-114 109 -114 268q0 158 116 271q115 112 276 112q157 0 272 -110q115 -109 115 -268q0 -158 -116 -271q-116 -111 -276 -111zM599 428q0 136 -22 199q-37 111 -144 111q-123 0 -160 -136q-19 -66 -19 -235q0 -160 20 -223q38 -120 164 -120
q68 0 113 49q42 48 42 117q0 40 3 119q3 80 3 119z" />
    <glyph glyph-name="P" unicode="P" horiz-adv-x="656" 
d="M641 605q0 -111 -122 -150q-65 -21 -213 -24l-1 -95q-2 -113 9 -247q21 1 66 -4q4 -13 3 -25v-11l-169 -15q-105 -11 -165 -34q-6 15 -5 37l1 21q46 13 82 18q-7 133 -7 281q0 160 11 350q-36 5 -116 -1q0 20 26 54q68 -9 160 -9q58 0 104 1q94 2 105 2q231 0 231 -149z
M483 587q0 62 -49 95q-42 28 -106 27h-10q-10 -156 -11 -246l24 -1q152 -5 152 125z" />
    <glyph glyph-name="Q" unicode="Q" horiz-adv-x="846" 
d="M415 0q-155 1 -268 111q-112 109 -112 266q0 159 115 271t276 112q158 0 271 -110q114 -110 114 -268q0 -154 -109 -264q-111 -111 -262 -118q-20 -14 -42 -27q60 16 117 16q49 0 130 -21q90 -22 129 -27q-57 -57 -123 -57q-54 0 -156 37q-102 36 -163 34q33 14 83 45z
M597 428q0 134 -21 199q-38 111 -144 111q-123 0 -160 -136q-19 -66 -19 -235q0 -160 20 -223q37 -120 164 -120q67 0 111 48q44 50 44 118q0 13 2 119q3 80 3 119z" />
    <glyph glyph-name="R" unicode="R" horiz-adv-x="700" 
d="M683 55q-92 -33 -164 -30l-29 1q-37 41 -50 131l-18 153q-12 81 -46 106q-19 13 -70 15l-1 -95q-2 -113 9 -247h6q20 1 60 -4q4 -13 3 -25v-11l-169 -15q-105 -11 -165 -34q-6 14 -5 37l1 21q48 14 82 18q-7 133 -7 281q0 160 11 350q-36 5 -116 -1q0 20 26 54
q68 -9 160 -9q58 0 104 1q94 2 105 2q231 0 231 -149q0 -132 -173 -162q90 -34 121 -190q7 -40 47 -171h46q3 -8 3 -15q-1 -4 -2 -12zM483 587q0 62 -49 95q-42 28 -106 27h-10q-10 -156 -11 -246l24 -1q152 -5 152 125z" />
    <glyph glyph-name="S" unicode="S" horiz-adv-x="522" 
d="M244 10q-111 0 -179 52q1 -29 10 -62l-24 4q-10 56 -10 113q0 69 22 188l14 -1q-4 -15 -4 -36q0 -77 46 -150q52 -85 123 -85q40 0 74 21q40 25 40 62q0 64 -83 126l-155 108q-83 69 -83 151q0 101 86 166q79 61 183 61q67 0 110 -25q-3 25 -12 43q15 10 33 14
q26 -95 26 -179q0 -48 -16 -86q-19 -52 -59 -52q-19 0 -33.5 12.5t-14.5 29.5t12.5 29t28.5 12q28 0 40 -37q13 23 13 55q0 56 -42 109q-42 52 -98 52q-41 0 -65 -29t-24 -73q0 -74 74 -139l136 -107q74 -66 74 -144q0 -91 -77 -150q-71 -53 -166 -53z" />
    <glyph glyph-name="T" unicode="T" horiz-adv-x="597" 
d="M560 384l-20 14q20 54 20 103q0 73 -39 126q-43 57 -113 54l-16 -1l-6 -652q24 2 55 7l1 -14v-8q-121 -16 -244 -16q-40 0 -64 3q-9 17 -8 29v8q21 -6 64 -12q-2 76 -2 117q0 114 7 264q6 136 11 264q-85 -12 -132 -89q-40 -65 -40 -158q0 -13 2 -35l-19 4q-2 38 -2 59
q0 65 7 150l12 151l23 4q0 -4 -2 -20t-2 -22q0 -12 5 -17q56 2 248 4q159 0 249 6q2 32 -2 43q9 8 25 10q-2 -26 -2 -44q0 -24 3 -72t3 -72q0 -181 -22 -188z" />
    <glyph glyph-name="U" unicode="U" horiz-adv-x="552" 
d="M537 742l-3 -23l-18 1q-5 1 -22 -1q-33 -255 -33 -456q0 -122 12 -224l-23 -3l-6 26q-68 -62 -162 -62q-263 0 -263 453q0 162 28 255l-30 6q-2 22 -2 27t2 19q44 -14 112 -25l115 -14q-14 -123 -14 -272q0 -18 -1 -41v-61q0 -320 90 -320q78 0 99 114q8 46 8 174
q0 145 -15 401q-38 2 -53 2q-2 6 -2 11q0 13 4 22q93 -23 177 -9z" />
    <glyph glyph-name="V" unicode="V" horiz-adv-x="707" 
d="M692 756q-4 -17 -21 -43q-24 19 -62 21l-259 -731q-22 -3 -48 -3q-24 0 -47 3q-133 261 -198 722l-39 1q-3 8 -3 17q1 5 2 14q172 -8 301 -2l-5 -29q-18 2 -25 2l-13 -1q76 -305 111 -545q98 251 165 556h-17q-29 1 -76 -10q1 19 13 32q72 8 117 8q60 0 104 -12z" />
    <glyph glyph-name="W" unicode="W" horiz-adv-x="1092" 
d="M1077 742q-5 -18 -19 -42q-21 18 -59 20l-244 -714q-21 -3 -45 -3q-23 0 -44 3q-78 158 -131 394q-51 -201 -139 -397q-21 -3 -44 -3q-24 0 -45 3q-157 390 -234 711q-11 3 -58 8v11q0 6 6 27q123 -24 244 -24q55 0 90 8q2 -8 2 -13q0 -9 -1 -13q-29 0 -61 -2
q95 -374 140 -528q40 107 49 134q27 80 38 138q-24 118 -42 252l-38 1q-2 10 -2 16q1 5 2 14q156 -7 283 -3l-4 -27q-17 2 -24 1h-13q73 -298 105 -533q93 245 156 543l-16 1q-31 1 -71 -11q0 19 12 32q66 8 109 8q57 0 98 -12z" />
    <glyph glyph-name="X" unicode="X" horiz-adv-x="750" 
d="M735 34q-140 -29 -274 -29q-59 0 -106 4q-2 18 -2 21v11l11 -1q30 0 59 6q-63 126 -129 278q-82 -169 -95 -292q27 -6 52 -5l-4 -27h-38q-114 0 -194 11q8 33 23 47q44 -13 81 -14q83 192 157 325q-57 137 -118 302l-72 -19q-14 20 -18 42q168 51 340 49h23l12 -21
l-57 -10q50 -90 92 -179q55 85 76 173q-38 8 -66 9q6 28 22 45q92 -20 161 -65l-11 -28q-17 16 -42 22q-62 -120 -122 -193q95 -204 174 -440q34 6 53 18q11 -18 12 -40z" />
    <glyph glyph-name="Y" unicode="Y" horiz-adv-x="693" 
d="M678 745l-2 -23l-27 2q-49 -68 -180 -294q15 -223 10 -389l83 13q-4 -22 -17 -36q-120 -18 -219 -18q-62 0 -126 8q-4 14 -3 24v17q39 -9 66 -10q4 73 5 181q3 119 6 182q-113 140 -214 310q-21 -1 -42 -10q-3 8 -3 16q0 12 4 28q82 8 164 8q52 0 167 -4l2 -11l-2 -14
l-25 1l-27 -1q48 -120 148 -262q15 24 60 141q34 88 75 130q-61 0 -78 -1l4 27h21q56 2 150 -15z" />
    <glyph glyph-name="Z" unicode="Z" horiz-adv-x="566" 
d="M531 734l-4 -18l-13 1q-1 -1 -23 -1q-73 -206 -209 -645q25 -3 46 -3q104 0 145 95q26 66 26 190h13h7q3 -91 3 -154q0 -118 -7 -199l-12 -1l-8 1v26q0 8 -1 13l-82 -1q-151 -2 -364 14q-1 3 -1 11q0 5 1 7l12 -1q6 0 24 3q66 317 225 647q-118 2 -182 -74t-72 -230
q-5 -1 -16 -1l-3 1v31q-1 132 23 312l21 2l-3 -22l282 1q90 0 172 -5z" />
    <glyph glyph-name="bracketleft" unicode="[" horiz-adv-x="233" 
d="M198 -83v-27h-148v870h148v-27h-56v-816h56z" />
    <glyph glyph-name="backslash" unicode="\" horiz-adv-x="425" 
d="M358 0l-323 760h32l323 -760h-32z" />
    <glyph glyph-name="bracketright" unicode="]" horiz-adv-x="233" 
d="M183 -110h-148v27h56v816h-56v27h148v-870z" />
    <glyph glyph-name="asciicircum" unicode="^" horiz-adv-x="466" 
d="M234 508l197 -250h-38l-159 146l-162 -146h-37z" />
    <glyph glyph-name="underscore" unicode="_" horiz-adv-x="795" 
d="M0 -108v52h868v-52h-868z" />
    <glyph glyph-name="grave" unicode="`" horiz-adv-x="211" 
d="M154 800l-119 141h48l93 -141h-22z" />
    <glyph glyph-name="a" unicode="a" horiz-adv-x="384" 
d="M332 56l37 15l-11 -39q-51 -12 -96 -12q-27 0 -60 5q-34 -25 -69 -25q-41 0 -81 36q-26 38 -26 88q0 39 15 87q39 -1 146 23q-8 82 -11 93q-12 60 -43 79q-14 8 -26 8q-35 0 -53 -43q14 15 30 15q8 0 20 -5q34 -18 34 -63q0 -33 -19.5 -59t-48.5 -24q-28 2 -42 26
q-13 20 -13 49q0 62 45 104q46 43 110 46q98 5 144 -73q36 -63 36 -172q0 -79 -18 -159zM200 35q0 57 -12 186q-50 -14 -50 -90q0 -37 15 -64q18 -30 47 -32z" />
    <glyph glyph-name="b" unicode="b" horiz-adv-x="521" 
d="M328 0q-46 0 -84 25q-48 -2 -79 -2q-24 0 -80 2l-9 26q16 0 46 -6q-13 124 -13 261q0 162 19 321l-18 1q-51 2 -95 -30q1 19 13 37q60 21 219 21h23q13 -144 13 -240q30 33 75 33q74 0 114 -63q34 -52 34 -130q0 -91 -46 -167q-53 -89 -132 -89zM303 404q-13 0 -20 -16
q-1 -205 -16 -352q13 -9 27 -9q57 0 57 226q0 151 -48 151z" />
    <glyph glyph-name="c" unicode="c" horiz-adv-x="444" 
d="M409 128q0 -60 -52 -96q-47 -32 -108 -32q-92 0 -151 53q-63 55 -63 144q0 105 61 176q64 76 167 76q55 0 91.5 -34.5t36.5 -88.5q0 -46 -24 -80q-27 -40 -70 -40q-34 0 -52.5 23.5t-18.5 60.5q0 40 24 68.5t61 28.5q48 0 55 -61v11q1 34 -20 60.5t-51 26.5
q-60 0 -89 -80q-21 -57 -21 -130q0 -70 16 -118q24 -73 79 -73q92 0 92 126q0 24 14 24q23 0 23 -45z" />
    <glyph glyph-name="d" unicode="d" horiz-adv-x="524" 
d="M265 628l-38 -3v27h-9q112 1 196 12q30 -269 25 -605q41 5 69 21q1 -3 1 -9q0 -10 -6 -25q-86 -18 -209 -23l-7 21q-62 -44 -120 -44q-73 0 -116 91q-36 73 -36 158q0 105 76 163q69 52 177 57q-6 87 -3 159zM284 89q0 102 -17 326q-1 37 -27 37q-34 0 -54 -32
q-16 -25 -16 -62q0 -306 83 -306q31 0 31 37z" />
    <glyph glyph-name="e" unicode="e" horiz-adv-x="468" 
d="M453 137q-1 -71 -63 -108q-50 -29 -117 -29q-94 0 -166 66q-72 67 -72 160q0 100 65 174q66 73 166 73q75 0 122 -53q48 -52 48 -129q0 -38 -13 -45q-7 -6 -48 -6q-71 0 -162 17q0 -18 -1 -35q-1 -15 -1 -34q0 -163 98 -163q62 0 84 37q17 28 17 90q0 24 15 24
q28 0 28 -39zM282 265q9 49 9 105q0 78 -28 78q-45 0 -45 -124q0 -13 1 -24v-24q33 -9 63 -11z" />
    <glyph glyph-name="f" unicode="f" horiz-adv-x="375" 
d="M273 557q-30 0 -49.5 18.5t-19.5 48.5q0 36 22.5 58.5t55.5 18.5q-14 9 -31 9q-74 0 -74 -92q0 -47 29 -192l56 27l1 -9q0 -17 -10 -36l-41 -13q8 -45 34 -319l47 8q2 -10 2 -16q-1 -3 -2 -9q-31 -5 -114 -34q-71 -25 -115 -25q-4 0 -18 2q-1 5 -1 16v15h5q24 0 57 11
q-48 186 -59 304l-33 -8l3 24l29 6q-3 34 -3 67q0 111 52 193q60 98 164 98q41 0 69 -22q31 -25 31 -65q0 -35 -25.5 -59.5t-61.5 -24.5z" />
    <glyph glyph-name="g" unicode="g" horiz-adv-x="486" 
d="M202 -180q-187 0 -187 90q0 53 85 83q-40 21 -40 65q0 70 90 113q-39 19 -63 54t-24 76q0 64 49 106q50 42 114 42q25 0 52 -8q44 6 52 44q-17 -23 -44 -23t-49.5 20t-22.5 47t23.5 47t51.5 20q33 0 54 -23t21 -57q0 -47 -60 -85q37 -19 60.5 -54t23.5 -76
q0 -63 -49 -105t-113 -42q-25 0 -52 8q-22 -18 -22 -28q0 -34 84 -39q143 -8 155 -11q82 -19 79 -89q-3 -89 -95 -136q-73 -39 -173 -39zM369 -72q0 48 -89 48q-23 0 -40 -1q-6 0 -13.5 -0.5t-11 -1t-5.5 -0.5q-50 0 -81 9q-33 -19 -39 -25q-20 -17 -20 -38q0 -41 57 -61
q42 -14 95 -14q51 0 93 19q54 24 54 65zM267 202q0 86 -19 196q-5 26 -22 26q-24 0 -24 -38q0 -213 38 -213q11 0 19 9t8 20z" />
    <glyph glyph-name="h" unicode="h" horiz-adv-x="524" 
d="M505 70q4 -5 4 -16q0 -8 -4 -17q-79 -17 -157 -17q-16 0 -50 2q7 97 7 182q0 86 -1 94q-6 70 -34 70q-17 0 -30 -13q-2 -81 -4 -318l14 2l-1 -22q-87 -17 -140 -17q-27 0 -57 3q-4 9 -4 18l1 9q28 -5 42 -5q-8 350 -8 390q0 103 5 235q-20 0 -49 4q0 3 -1 8.5l-2 11
t-1 11.5q67 -15 137 -15q37 0 65 4l3 -294q47 50 101 50q118 0 118 -240q0 -17 -2 -77q0 -15 -0.5 -29.5t-1 -22t-0.5 -9.5q21 1 50 18z" />
    <glyph glyph-name="i" unicode="i" horiz-adv-x="275" 
d="M152 471q-39 0 -64.5 22t-25.5 58q0 34 26.5 60t60.5 26q40 0 64.5 -22.5t24.5 -61.5q0 -36 -24.5 -59t-61.5 -23zM260 27v-21q-100 -7 -158 -6l-45 1q-8 10 -8 18v5q36 -2 43 -2q-8 82 -8 148q0 90 12 195q-26 -1 -49 -8q-6 10 -12 35q28 2 44 2q77 0 153 -14
q11 -173 11 -226q0 -64 -6 -128z" />
    <glyph glyph-name="j" unicode="j" horiz-adv-x="469" 
d="M174 -177q-64 0 -111 40q-48 40 -48 103q0 46 30 82q31 36 75 36t73 -27t29 -70q0 -39 -26 -68.5t-64 -29.5q-51 0 -86 35q15 -38 51 -61.5t78 -23.5q63 0 89 104q16 61 16 154q0 26 -4.5 87t-4.5 87q0 28 13 81q-35 2 -62 6q-5 10 -13 40q90 -21 209 -22q16 -86 16 -180
q0 -136 -55 -240q-70 -133 -205 -133zM332 471q-38 0 -63.5 22.5t-25.5 57.5q0 34 26 60t60 26q40 0 64.5 -22.5t24.5 -61.5q0 -36 -24.5 -59t-61.5 -23z" />
    <glyph glyph-name="k" unicode="k" horiz-adv-x="561" 
d="M545 64q1 -7 1 -20q0 -5 -2 -19q-75 -27 -168 -25h-15q-78 81 -96 189q-12 -17 -15 -72l-2 -80q3 0 25 2l-1 -22q-116 -7 -156 -6h-42q-12 18 -12 36q22 -7 44 -9q-8 315 -8 357q0 117 6 244q-26 0 -53 -9q-13 16 -16 32q55 13 137 13q39 0 79 -5q9 -242 9 -285
q0 -39 -5 -174q85 108 108 173q-21 2 -38 -1l-2 11l1 7q28 3 54 3q44 0 85 -7l-8 -22q-20 5 -33 5h-7l-59 -69q88 -150 143 -267q23 1 46 20z" />
    <glyph glyph-name="l" unicode="l" horiz-adv-x="283" 
d="M268 20v-7q-116 -14 -175 -13l-41 1q-10 17 -8 28v9q28 -5 42 -5q-6 131 -6 272q0 210 13 421q-21 -3 -54 -20l-4 28q48 18 118 18q29 0 94 -5q8 -227 8 -371q0 -189 -10 -342q6 -1 22 0z" />
    <glyph glyph-name="m" unicode="m" horiz-adv-x="746" 
d="M731 48q0 -20 -14 -40q-121 7 -184 21q7 98 7 173q0 228 -59 228q-22 0 -42 -35q34 -85 26 -357l14 1l-3 -24q-8 0 -58 -2q-25 -1 -56 -1q-46 0 -77 7l4 19l17 -3q-5 163 -5 335q0 48 -27 48q-16 0 -29 -10.5t-15 -25.5q10 -39 10 -162q0 -157 -5 -199q-3 -21 -134 -21
q-20 0 -66 2q3 18 16 27q18 -2 22 -2l14 1q-9 68 -9 146q0 81 14 241l-12 -1q-17 -2 -38 7q-2 6 -2 8q0 11 3 23q57 -13 178 -12l4 -31q12 21 49 37q34 15 62 15q61 0 92 -43q40 67 114 67q103 0 141 -104q24 -66 24 -193q0 -72 -9 -142q12 -1 33 2z" />
    <glyph glyph-name="n" unicode="n" horiz-adv-x="614" 
d="M599 19q-84 4 -102 4q-57 4 -101 12q-1 86 -11 305q-5 77 -43 77q-26 0 -48 -36q-19 -31 -22 -59q-4 -45 -1 -139q2 -98 0 -140q16 4 37 16l1 -11q0 -17 -4 -34q-87 -12 -172 -12q-22 0 -64 2v22q18 -2 23 -2l16 1q-12 86 -12 185q0 89 11 210q-45 -8 -68 -23
q-5 11 -3 21l1 14q63 18 154 18h62q6 -44 15 -74q22 45 63.5 71.5t90.5 26.5q92 0 124 -105q16 -54 16 -182q0 -70 -11 -134q20 -2 38 3q7 -12 10 -37z" />
    <glyph glyph-name="o" unicode="o" horiz-adv-x="550" 
d="M515 249q0 -103 -70 -176q-69 -73 -170 -73t-171 73q-69 73 -69 176q0 101 69 174q71 74 171 74q101 0 170 -74q70 -73 70 -174zM365 123q0 89 -24 199q-31 150 -87 150q-51 0 -51 -95q0 -110 16 -202q26 -149 81 -149q31 0 49 35q16 28 16 62z" />
    <glyph glyph-name="p" unicode="p" horiz-adv-x="497" 
d="M482 222q0 -74 -34 -124q-39 -58 -109 -58q-41 0 -70 29q5 -92 5 -126q0 -68 -1 -104q-85 -6 -131 -6q-70 0 -112 11q-12 16 -15 36q39 -25 88 -23l26 2q-43 243 -43 482q0 32 2 98q-18 -1 -46 -8q2 13 7 26q86 17 160 9q40 31 91 31q84 0 136 -97q46 -82 46 -178z
M328 201q0 79 -13 153q-20 113 -55 113q-14 0 -28 -10q17 -105 35 -361q8 -14 19 -14q42 0 42 119z" />
    <glyph glyph-name="q" unicode="q" horiz-adv-x="551" 
d="M536 -74q0 -21 -10 -38q-61 -27 -239 -40q-32 160 -36 228q-30 -39 -82 -39q-77 0 -119 68q-35 58 -35 138q0 87 45 165q51 89 127 89q39 0 76 -20q78 14 157 15l10 -25q-10 2 -19 2q-13 0 -27 -3q43 -233 43 -488q0 -60 -1 -89q72 9 110 37zM249 104q-14 193 -10 362
q-13 7 -24 7q-48 0 -48 -136q0 -73 12 -144q16 -106 50 -106q14 0 20 17z" />
    <glyph glyph-name="r" unicode="r" horiz-adv-x="442" 
d="M427 402q0 -48 -24 -82q-27 -39 -74 -39q-31 0 -51 27q-16 22 -16 57q0 42 22 74q-19 -6 -29 -34q-9 -23 -9 -45q0 -49 6 -166q6 -113 5 -165q15 -3 26 -2l-2 -18q-67 -9 -149 -9q-49 0 -80 1q-7 13 -9 35q11 -5 50 -7q-16 188 -8 417q-21 -2 -48 -23q-2 10 -2 13
q1 4 2 13q72 55 181 54h11q5 -38 5 -84q38 96 105 96q44 0 68 -36q20 -32 20 -77z" />
    <glyph glyph-name="s" unicode="s" horiz-adv-x="483" 
d="M199 0q-66 0 -109 25q-55 30 -55 90q0 40 30 70q30 31 70 31q43 0 72 -25.5t29 -66.5q0 -32 -25 -54t-58 -22q-34 0 -63 29q-2 -53 106 -53q53 0 93 31q46 33 46 84q0 53 -69 85l-127 51q-68 36 -68 106q0 83 67 140q64 54 150 54q44 0 82 -20q45 -23 45 -65
q0 -29 -25 -51t-56 -22q-30 0 -59 24q-28 25 -28 56q0 35 42 55h-7q-37 1 -69 -17q-37 -21 -37 -57q0 -44 70 -72q120 -48 132 -55q70 -43 70 -124q0 -95 -78 -163q-73 -64 -171 -64z" />
    <glyph glyph-name="t" unicode="t" horiz-adv-x="390" 
d="M375 131q0 -57 -61 -97q-53 -34 -115 -34q-153 0 -153 274q0 86 15 192l-37 4q-9 10 -9 23v7h12h40q13 80 36 180q-12 -2 -26 -8v6q-1 11 2 26q61 9 125 9q21 0 63 -2l-21 -192q44 9 74 16q14 -30 12 -51v-6q-23 -3 -91 -10l-19 -171q-12 -107 -12 -168q0 -86 48 -86
q38 0 61 22t23 59q0 22 -12 48q-9 8 -11 19l10 12l4 1q17 0 31 -29q11 -24 11 -44z" />
    <glyph glyph-name="u" unicode="u" horiz-adv-x="521" 
d="M505 43q1 -3 1 -10q0 -9 -3 -19q-38 -2 -55 -2q-63 0 -150 17q5 27 5 48v9q-53 -86 -135 -86q-69 0 -114 65q-39 57 -39 129q0 148 63 265q-12 5 -28 5q-19 0 -31 -6l-1 12q0 14 4 26q120 -17 200 -50q-5 -57 -31 -176q-24 -112 -24 -175q0 -57 40 -57q30 0 61 34
q33 36 37 65q9 57 10 151q3 97 11 151q-23 0 -50 -5q-5 15 -5 25v6q24 2 50 2q123 0 167 -18q-9 -264 -31 -411l11 -1q20 0 37 6z" />
    <glyph glyph-name="v" unicode="v" horiz-adv-x="556" 
d="M541 487l-12 -26q-19 17 -45 18l-56 -176q-34 -105 -72 -169q-49 -84 -126 -134q-140 149 -154 460q-22 0 -58 -9q-3 5 -3 15q0 6 5 18q172 24 237 24h8l-1 -20h-4q-11 0 -16 -1q20 -67 80 -364q86 185 111 371q-25 3 -60 2l11 19q7 1 24 1q78 0 131 -29z" />
    <glyph glyph-name="w" unicode="w" horiz-adv-x="812" 
d="M797 477l-7 -22q-23 15 -40 18q-55 -149 -100 -245q-62 -132 -135 -228q-69 124 -115 280q-38 -140 -159 -278q-135 296 -184 436q-11 -1 -40 -13q-2 4 -2 10q0 16 7 26q50 16 222 37q3 -7 2 -12l-1 -8l-25 -5q80 -152 119 -278q25 57 42 152q-20 66 -33 124l-29 -8
l-3 13l6 14q93 14 180 12h23v-15h-11h-12l52 -157q31 -94 45 -158q63 170 83 316q-41 9 -71 5l11 22l17 1q30 1 81 -11q46 -12 77 -28z" />
    <glyph glyph-name="x" unicode="x" horiz-adv-x="531" 
d="M516 23q-100 -20 -191 -20q-37 0 -74 3l-1 14v8h9q22 0 39 4q-50 99 -89 191q-55 -115 -66 -201q18 -4 36 -3l-3 -19h-26q-79 0 -135 8q4 20 16 32q33 -9 56 -10q60 138 109 223q-42 99 -81 208l-51 -13q-11 14 -12 29q120 35 236 34h16l9 -15l-40 -7q28 -50 64 -123
q39 61 52 119q-25 6 -45 6q4 19 15 31q63 -14 112 -45l-7 -19q-14 12 -30 15q-42 -81 -85 -132q67 -141 121 -302q24 5 37 12q8 -14 9 -28z" />
    <glyph glyph-name="y" unicode="y" horiz-adv-x="601" 
d="M586 493l-10 -25q-32 21 -73 22q-49 -219 -60 -252q-50 -181 -112 -280q-84 -132 -193 -132q-50 0 -85 29q-38 32 -38 81t33 85t81 36q42 0 69.5 -26.5t27.5 -67.5q0 -44 -28 -75q-27 -32 -68 -32q-18 0 -32 8q8 -20 37 -20q69 0 123 74q30 40 72 135q-99 79 -263 376
q-8 0 -22 -8l-23 -11l-5 24q45 27 127 51q86 25 132 24l17 -1v-15v-19l-32 1h-13q24 -52 72 -140q44 -78 73 -139q31 115 49 296q-27 3 -60 -3l3 23q18 3 44 3q114 0 157 -22z" />
    <glyph glyph-name="z" unicode="z" horiz-adv-x="465" 
d="M442 235l7 -1v-20q1 -88 -33 -214l-25 7l6 26q-65 -15 -147 -15q-105 0 -205 23q-2 6 -2 11t1 16l29 -5q74 217 171 400q-42 5 -64 5q-70 0 -98 -37q-21 -27 -29 -103l-16 6l-2 71q0 42 11 111h8h11l-3 -27q14 2 50 2q210 0 298 -13q-80 -143 -192 -434q28 -3 54 -3
q143 0 159 193z" />
    <glyph glyph-name="braceleft" unicode="{" horiz-adv-x="281" 
d="M246 -3v-17q-81 3 -119 47q-29 34 -37 105q-2 28 -2 130q0 98 -53 109v19q54 10 54 114q0 11 -1.5 38.5t-1.5 30.5q0 201 160 207v-16q-68 -5 -68 -127q0 -26 1 -45q0 -7 0.5 -15.5t1 -13t0.5 -6.5q0 -70 -18 -109q-23 -52 -81 -68q59 -17 82 -77q17 -45 17 -121
q0 -22 -1 -38v-36q0 -50 9 -73q14 -37 57 -38z" />
    <glyph glyph-name="braceright" unicode="}" horiz-adv-x="281" 
d="M35 -20v17q42 1 57 38q9 23 9 73q0 19 -1 36v38q0 79 16 121q23 60 83 77q-59 17 -82 68q-17 40 -17 109q0 17 1 35q2 38 2 45q0 122 -68 127v16q159 -6 159 -207q0 -3 -1 -30.5t-1 -38.5q0 -104 54 -114v-19q-54 -11 -54 -109q0 -102 -2 -130q-8 -71 -37 -105
q-38 -44 -118 -47z" />
    <glyph glyph-name="asciitilde" unicode="~" horiz-adv-x="536" 
d="M472 439l29 -26q-42 -127 -129 -127q-22 0 -99 44q-77 45 -114 45q-62 0 -94 -89l-30 28q53 125 140 125q49 0 115 -45t93 -45q45 0 89 90z" />
    <glyph glyph-name="exclamdown" unicode="&#xa1;" horiz-adv-x="258" 
d="M74 316l62 201h9l45 -194q28 -118 28 -195q0 -47 -23 -85q-27 -43 -71 -43q-45 0 -69 38q-20 32 -20 79q0 67 39 199zM61 671q0 37 24 63t57 26t57 -26t24 -63t-24 -63t-57 -26t-57 26t-24 63z" />
    <glyph glyph-name="cent" unicode="&#xa2;" horiz-adv-x="508" 
d="M473 269q0 -70 -71 -109q-59 -33 -133 -30v-130h-17v131q-94 10 -157 73q-60 63 -60 158q0 99 59 173q61 75 158 91v134h17v-132q24 2 35 2q55 0 94 -21q47 -26 47 -77q0 -35 -26.5 -62t-61.5 -27q-32 0 -51 19.5t-19 52.5q0 27 20 45.5t48 18.5q52 0 67 -43
q-2 38 -36 60q-32 20 -70 20q-28 0 -47 -13v-418q25 -27 66 -27q113 0 113 138q0 9 10 10q15 -4 15 -37zM252 206v382q-49 -52 -49 -179q0 -130 49 -203z" />
    <glyph glyph-name="sterling" unicode="&#xa3;" horiz-adv-x="634" 
d="M594 368h23v-33q2 -78 -11 -169q-16 -112 -25 -168l-7 -1q-6 0 -13 3v12v13l-47 -1q-40 -2 -111 3q-68 4 -110 4q-99 0 -229 -12l2 15l33 6q-24 132 -24 255q0 21 2 63l-61 1v7q-2 9 12 29l51 1q13 144 93 246q92 116 227 116q58 0 95 -34t37 -90q0 -46 -36 -71
q-31 -21 -80 -21q-31 0 -55 15q-27 18 -27 48q0 35 29 61q28 22 65 22q51 0 61 -36q0 33 -24.5 58.5t-57.5 25.5q-156 0 -156 -186q0 -47 8 -153l105 -2q-1 -23 -12 -36l-90 -1l15 -152q8 -90 6 -152h3q137 -3 222 87q83 89 87 227z" />
    <glyph glyph-name="currency" unicode="&#xa4;" horiz-adv-x="724" 
d="M709 183q0 -88 -85 -139q-74 -44 -166 -44q-128 0 -219 89q-90 88 -96 218l-127 2l-1 5q0 12 16 31l110 2q0 35 3 66l-83 1l-1 6q0 11 16 30l74 2q26 134 110 218q92 90 223 90q73 0 123 -39q53 -42 53 -113q0 -56 -39 -96t-93 -40q-41 0 -63 25t-22 68q0 49 29 82.5
t75 33.5q63 0 83 -65q-1 52 -41 87t-92 35q-78 0 -116 -110q-23 -72 -26 -175q82 0 170 -3q-2 -22 -15 -36l-156 -2l3 -65l124 -2q-1 -21 -16 -36l-104 -2q12 -101 44 -171q47 -101 127 -101q61 0 104 42q45 44 44 103q0 4 -1 19t-1 20q0 21 13 22q19 -7 19 -58z" />
    <glyph glyph-name="yen" unicode="&#xa5;" horiz-adv-x="693" 
d="M678 745l-2 -23l-27 2q-47 -63 -173 -281l102 -3q4 -9 4 -19q-1 -5 -4 -16l-108 -1l4 -65l104 -3q4 -9 4 -19q-1 -5 -4 -16l-102 -1q7 -142 3 -259l83 13q-4 -22 -17 -36q-120 -18 -219 -18q-64 0 -126 8q-4 14 -3 24v17q39 -9 66 -10q1 10 7 260l-133 2q-5 7 -5 15
q0 5 5 20q66 3 135 3l2 63l-1 1l-136 2q-5 7 -5 15q0 5 5 20l104 3q-102 134 -181 269q-21 -1 -42 -10q-3 8 -3 16q0 12 4 28q82 8 164 8q51 0 167 -4l2 -11l-2 -14l-25 1l-27 -1q47 -117 148 -262q15 24 60 141q34 88 75 130q-61 0 -78 -1q2 18 4 27h21q56 2 150 -15z" />
    <glyph glyph-name="dieresis" unicode="&#xa8;" horiz-adv-x="298" 
d="M263 840q0 -17 -12 -28.5t-28 -11.5t-27.5 11.5t-11.5 28.5q0 16 11.5 27.5t27.5 11.5t28 -11.5t12 -27.5zM114 840q0 -17 -11.5 -28.5t-27.5 -11.5q-17 0 -28.5 11.5t-11.5 28.5q0 16 11.5 27.5t28.5 11.5q16 0 27.5 -11.5t11.5 -27.5z" />
    <glyph glyph-name="copyright" unicode="&#xa9;" horiz-adv-x="830" 
d="M795 380q0 -161 -110 -271q-109 -109 -270 -109q-162 0 -271 109t-109 271q0 161 109 270q110 110 271 110q160 0 270 -110t110 -270zM72 380q0 -145 99 -244t244 -99t244 99t99 244t-99 244t-244 99t-244 -99t-99 -244zM183 370q0 106 72 167q67 57 175 57
q155 0 214 -116l-45 -23q-56 89 -165 89q-92 0 -142 -47.5t-50 -136.5q0 -60 54 -104q50 -41 113 -41q127 0 199 102l39 -25q-85 -126 -238 -126q-93 0 -157 55q-69 59 -69 149z" />
    <glyph glyph-name="ordfeminine" unicode="&#xaa;" horiz-adv-x="336" 
d="M273 457l28 11l-9 -29q-63 -15 -117 -5q-25 -19 -52 -19q-30 0 -60 27q-20 29 -20 66q0 30 12 65q30 -1 109 18q-4 54 -8 69q-9 45 -32 59q-10 6 -20 6q-25 0 -39 -32q16 19 36 8q26 -14 26 -47q0 -25 -14.5 -44.5t-36.5 -18.5q-35 1 -40 44q-6 52 28 86q34 36 87 39
q68 4 102 -42t34 -141q0 -59 -14 -120zM174 441q0 43 -9 140q-38 -11 -38 -68q0 -28 13 -49t34 -23z" />
    <glyph glyph-name="guillemotleft" unicode="&#xab;" horiz-adv-x="446" 
d="M411 166l-236 211l236 217v-40l-189 -177l189 -170v-41zM271 166l-236 211l236 217v-40l-189 -177l189 -170v-41z" />
    <glyph glyph-name="minus" unicode="&#xad;" horiz-adv-x="364" 
d="M35 374v50h294v-50h-294z" />
    <glyph glyph-name="registered" unicode="&#xae;" horiz-adv-x="505" 
d="M252 325q-90 0 -154 63q-63 64 -63 154q0 91 63 154q63 64 154 64t154 -64q64 -63 64 -154t-64 -154q-63 -63 -154 -63zM252 732q-80 0 -135 -55q-54 -55 -54 -135q0 -79 55 -134t134 -55q80 0 135 54q55 55 55 135t-55 135t-135 55zM382 420h-46l-59 97h-89v-98h-41v247
h118q114 0 114 -75q0 -52 -59 -69zM265 627h-76v-70h72q77 0 77 37q0 33 -73 33z" />
    <glyph glyph-name="twosuperior" unicode="&#xb2;" horiz-adv-x="293" 
d="M258 478v-21q-35 -8 -109 -2l1 -3l-18 -1q-11 -1 -65 5q-3 8 -3 16q0 34 58 104q59 71 59 106q0 26 -14.5 45.5t-37.5 19.5q-24 0 -47 -30q18 -1 31 -15t13 -32t-15 -32t-34 -14q-18 0 -30 14.5t-12 35.5q0 38 39 63q35 23 73 23q44 0 71.5 -26.5t27.5 -70.5
q0 -32 -50 -93q-50 -59 -48 -95l1 -8l20 -1q50 -2 67 35q11 26 9 83l8 1q5 -80 5 -107z" />
    <glyph glyph-name="threesuperior" unicode="&#xb3;" horiz-adv-x="311" 
d="M155 451q-46 0 -80 22q-40 25 -40 69q0 36 23 57.5t59 21.5q29 0 52 -14q24 -17 24 -45q0 -43 -40 -43q-12 0 -22 9.5t-10 21.5q0 32 39 28v3q1 25 -24 25q-19 0 -32 -28q-10 -21 -10 -45q0 -25 11 -45q14 -23 37 -23q31 0 49 39q15 32 15 66q0 33 -13 49q-8 10 -20 14
q-10 4 -15.5 7t-6 3.5t-0.5 1.5q0 3 3 11q7 -3 14 -3q14 0 24 13t10 30q0 48 -45 48q-39 0 -40 -27q15 -9 15 -26q0 -27 -26 -27q-12 0 -22 9t-10 21q0 32 26 50q22 16 56 16q40 0 69 -16q37 -19 37 -55q0 -46 -58 -50q72 -29 72 -91q0 -48 -38 -74q-32 -23 -83 -23z" />
    <glyph glyph-name="acute" unicode="&#xb4;" horiz-adv-x="211" 
d="M127 941h49l-119 -141h-22z" />
    <glyph glyph-name="middot" unicode="&#xb7;" horiz-adv-x="149" 
d="M114 400q0 -17 -11.5 -28.5t-27.5 -11.5q-17 0 -28.5 11.5t-11.5 28.5q0 16 11.5 27.5t28.5 11.5q16 0 27.5 -11.5t11.5 -27.5z" />
    <glyph glyph-name="cedilla" unicode="&#xb8;" horiz-adv-x="211" 
d="M127 28h49l-119 -141h-22z" />
    <glyph glyph-name="onesuperior" unicode="&#xb9;" horiz-adv-x="180" 
d="M145 465v-9q-53 -6 -87 -5h-16q-4 7 -4 12l1 3q14 -2 17 -2q-3 52 -3 111q0 72 5 172q-8 -1 -21 -8l-2 11q27 10 52 10q16 0 33 -5q-2 0 -2 -53q0 -6 0.5 -21.5t1 -43.5t0.5 -54q1 -73 0 -119q14 0 25 1z" />
    <glyph glyph-name="ordmasculine" unicode="&#xba;" horiz-adv-x="430" 
d="M395 574q0 -77 -52 -132t-128 -55t-128 55t-52 132q0 76 52 131t128 55t128 -55t52 -131zM282 480q0 63 -17 148q-26 113 -65 113t-39 -71q0 -80 12 -150q19 -114 60 -114q25 0 38 27q11 22 11 47z" />
    <glyph glyph-name="guillemotright" unicode="&#xbb;" horiz-adv-x="446" 
d="M35 594l236 -217l-236 -211v41l189 170l-189 177v40zM175 594l236 -217l-236 -211v41l189 170l-189 177v40z" />
    <glyph glyph-name="onequarter" unicode="&#xbc;" horiz-adv-x="638" 
d="M182 367v-12q-67 -9 -117 -8l-21 1q-4 8 -4 15v5q13 -3 23 -3q-4 63 -4 148q0 118 7 229q-11 -1 -29 -11l-2 16q36 13 70 13q24 0 44 -7q-3 0 -3 -71q0 -9 0.5 -28.5t1 -57.5t0.5 -72q1 -97 0 -158q19 0 34 1zM419 760h32l-323 -760h-32zM603 6v-3q-69 -3 -125 -3
q-66 0 -122 3l-4 19q3 0 75 -6l-2 106q-75 10 -169 6l1 20q117 123 181 263q14 3 29 3q29 0 60 -9q11 -120 4 -273q16 -2 20 -2q21 0 26 24q1 3 1 41l13 -1q1 -17 1 -52q0 -42 -3 -93l-10 -3q-5 40 -9 51q-10 24 -40 24q-3 -71 -5 -105q52 0 77 5zM434 373l-41 -119
q-27 -76 -52 -110l83 -7v57q-1 77 10 179z" />
    <glyph glyph-name="onehalf" unicode="&#xbd;" horiz-adv-x="646" 
d="M611 36l-1 -28q-44 -10 -144 -3l1 -4l-24 -1q-13 -1 -87 7q-4 9 -4 21q0 45 78 138q78 94 78 142q0 35 -19.5 61t-49.5 26q-33 0 -63 -40q24 -1 41.5 -19.5t17.5 -42.5q0 -26 -19.5 -44.5t-46.5 -18.5q-25 0 -41 22q-15 20 -15 46q0 50 52 84q47 30 98 30q58 0 95 -35
t37 -94q0 -43 -66 -123q-65 -79 -64 -128v-10l27 -1q67 -3 89 46q17 35 12 111l12 1q6 -96 6 -143zM182 367v-12q-67 -9 -117 -8l-21 1q-4 8 -4 15v5q13 -3 23 -3q-4 63 -4 148q0 118 7 229q-11 -1 -29 -11l-2 16q36 13 70 13q24 0 44 -7q-3 0 -3 -71q0 -9 0.5 -28.5
t1 -57.5t0.5 -72q1 -97 0 -158q19 0 34 1zM419 760h32l-323 -760h-32z" />
    <glyph glyph-name="threequarters" unicode="&#xbe;" horiz-adv-x="766" 
d="M547 760h32l-323 -760h-32zM731 6v-3q-69 -3 -125 -3q-66 0 -122 3l-4 19q3 0 75 -6l-3 106q-74 10 -168 6l1 20q117 123 181 263q13 3 29 3q29 0 60 -9q11 -113 3 -273q18 -2 21 -2q21 0 26 24q1 3 1 41l13 -1q1 -17 1 -52q0 -42 -3 -93l-10 -3q-5 40 -9 51
q-10 24 -40 24q-3 -71 -5 -105q52 0 77 5zM562 373l-41 -119q-27 -76 -52 -110l83 -7v57q-1 77 10 179zM195 348q-61 0 -107 30q-53 35 -53 92q0 47 31 76t79 29q40 0 68 -19q33 -22 33 -61q0 -24 -14.5 -40t-38.5 -16q-17 0 -30.5 12.5t-13.5 28.5q0 45 53 37v5
q2 33 -33 33q-25 0 -42 -38q-13 -30 -13 -60q0 -33 15 -59q16 -31 49 -31q41 0 66 52q20 42 20 87q0 44 -18 66q-8 11 -27 19q-15 6 -21.5 9t-7.5 4t-1 3q0 6 5 14q8 -4 18 -4q20 0 33 18t13 40q0 28 -16.5 46t-43.5 18q-51 0 -54 -36q20 -14 20 -35q0 -35 -34 -35
q-16 0 -30 12t-14 27q0 41 35 67q32 21 76 21q51 0 91 -22q50 -27 50 -73q0 -30 -25 -48q-20 -16 -52 -19q95 -39 95 -120q0 -64 -50 -99q-43 -31 -111 -31z" />
    <glyph glyph-name="questiondown" unicode="&#xbf;" horiz-adv-x="585" 
d="M35 205q0 50 62 112l116 99q62 56 62 88q0 4 -2 12h33q11 -28 11 -53q0 -50 -61 -136q-60 -87 -60 -151q0 -54 30 -91q32 -41 85 -41q76 0 125 67q-46 3 -76 34.5t-30 77.5q0 41 32 68t73 27q50 0 82.5 -26.5t32.5 -72.5q0 -92 -84 -158q-77 -61 -173 -61q-101 0 -175 51
q-83 59 -83 154zM204 671q0 36 23 62.5t58 26.5t58 -26.5t23 -62.5t-23 -62.5t-58 -26.5t-58 26.5t-23 62.5z" />
    <glyph glyph-name="Agrave" unicode="&#xc0;" 
d="M718 61q-1 -20 -9 -43q-87 -18 -179 -18q-58 0 -125 8l6 26q25 -6 42 -5h14q-25 61 -63 210q-115 -10 -230 -9l-21 -92q-11 -52 -15 -93l19 -1q13 0 68 5v-18q-72 -26 -132 -26q-39 0 -78 11l13 30l59 -5l56 189l-63 3l-13 34q29 -4 84 -10l138 442q91 49 154 66
q106 -249 204 -719q36 0 71 15zM400 258q-44 205 -93 404q-5 -8 -9 -19l-26 -75q-55 -172 -91 -313q54 -2 83 -2q54 0 136 5zM414 800l-119 141h48l93 -141h-22z" />
    <glyph glyph-name="Aacute" unicode="&#xc1;" 
d="M718 61q-1 -20 -9 -43q-87 -18 -179 -18q-58 0 -125 8l6 26q25 -6 42 -5h14q-25 61 -63 210q-115 -10 -230 -9l-21 -92q-11 -52 -15 -93l19 -1q13 0 68 5v-18q-72 -26 -132 -26q-39 0 -78 11l13 30l59 -5l56 189l-63 3l-13 34q29 -4 84 -10l138 442q91 49 154 66
q106 -249 204 -719q36 0 71 15zM400 258q-44 205 -93 404q-5 -8 -9 -19l-26 -75q-55 -172 -91 -313q54 -2 83 -2q54 0 136 5zM387 941h49l-119 -141h-22z" />
    <glyph glyph-name="Acircumflex" unicode="&#xc2;" 
d="M718 61q-1 -20 -9 -43q-87 -18 -179 -18q-58 0 -125 8l6 26q25 -6 42 -5h14q-25 61 -63 210q-115 -10 -230 -9l-21 -92q-11 -52 -15 -93l19 -1q13 0 68 5v-18q-72 -26 -132 -26q-39 0 -78 11l13 30l59 -5l56 189l-63 3l-13 34q29 -4 84 -10l138 442q91 49 154 66
q106 -249 204 -719q36 0 71 15zM400 258q-44 205 -93 404q-5 -8 -9 -19l-26 -75q-55 -172 -91 -313q54 -2 83 -2q54 0 136 5zM359 942l112 -142h-21l-91 83l-93 -83h-21z" />
    <glyph glyph-name="Atilde" unicode="&#xc3;" 
d="M718 61q-1 -20 -9 -43q-87 -18 -179 -18q-58 0 -125 8l6 26q25 -6 42 -5h14q-25 61 -63 210q-115 -10 -230 -9l-21 -92q-11 -52 -15 -93l19 -1q13 0 68 5v-18q-72 -26 -132 -26q-39 0 -78 11l13 30l59 -5l56 189l-63 3l-13 34q29 -4 84 -10l138 442q91 49 154 66
q106 -249 204 -719q36 0 71 15zM400 258q-44 205 -93 404q-5 -8 -9 -19l-26 -75q-55 -172 -91 -313q54 -2 83 -2q54 0 136 5zM484 888l17 -15q-24 -73 -74 -73q-14 0 -57 25q-43 26 -64 26q-36 0 -54 -51l-17 16q30 72 80 72q27 0 65 -26t53 -26q27 0 51 52z" />
    <glyph glyph-name="Adieresis" unicode="&#xc4;" 
d="M718 61q-1 -20 -9 -43q-87 -18 -179 -18q-58 0 -125 8l6 26q25 -6 42 -5h14q-25 61 -63 210q-115 -10 -230 -9l-21 -92q-11 -52 -15 -93l19 -1q13 0 68 5v-18q-72 -26 -132 -26q-39 0 -78 11l13 30l59 -5l56 189l-63 3l-13 34q29 -4 84 -10l138 442q91 49 154 66
q106 -249 204 -719q36 0 71 15zM400 258q-44 205 -93 404q-5 -8 -9 -19l-26 -75q-55 -172 -91 -313q54 -2 83 -2q54 0 136 5zM483 840q0 -17 -12 -28.5t-28 -11.5t-27.5 11.5t-11.5 28.5q0 16 11.5 27.5t27.5 11.5t28 -11.5t12 -27.5zM334 840q0 -17 -11.5 -28.5
t-27.5 -11.5q-17 0 -28.5 11.5t-11.5 28.5q0 16 11.5 27.5t28.5 11.5q16 0 27.5 -11.5t11.5 -27.5z" />
    <glyph glyph-name="Aring" unicode="&#xc5;" 
d="M400 258q-44 205 -93 404q-5 -8 -9 -19l-26 -75q-55 -172 -91 -313q54 -2 83 -2q54 0 136 5zM439 801q0 -20 -11 -40l15 4q106 -249 204 -719q36 0 71 15q-1 -20 -9 -43q-87 -18 -179 -18q-58 0 -125 8l6 26q25 -6 42 -5h14q-25 61 -63 210q-115 -10 -230 -9l-21 -92
q-11 -52 -15 -93l19 -1q13 0 68 5v-18q-72 -26 -132 -26q-39 0 -78 11l13 30l59 -5l56 189l-63 3l-13 34q29 -4 84 -10l138 442l49 25q-26 7 -42.5 28.5t-16.5 48.5q0 32 23.5 56t56.5 24t56.5 -24t23.5 -56zM401 801q0 17 -12.5 29.5t-29.5 12.5t-29.5 -12.5t-12.5 -29.5
t12.5 -29.5t29.5 -12.5t29.5 12.5t12.5 29.5z" />
    <glyph glyph-name="AE" unicode="&#xc6;" horiz-adv-x="876" 
d="M845 300h16l-4 -151q-5 -93 -17 -150l-16 1l1 19v9q-183 -7 -245 -7q-113 0 -190 10l5 25l5 -1v3l21 -2v79q-2 7 -5 20q-13 40 -27 98q-110 -11 -221 -9q-16 -63 -21 -88q-10 -46 -13 -89q32 -2 83 4v-17q-66 -25 -127 -25q-41 0 -75 10l12 29l57 -5l54 182l-61 3
q-9 14 -12 33q35 -7 81 -10l133 424q87 49 147 64l11 -26q152 -13 318 -13q40 0 75 8l3 22l7 1q4 0 14 -3q-5 -54 -7 -207l-12 -1l-11 1q2 18 2 28q0 73 -55 107q-47 30 -122 29h-36q3 -60 3 -122q0 -81 -6 -157q27 -4 54 -4q22 0 44 3q6 45 4 109l21 -2l1 -42
q1 -70 -13 -207l-16 -3q-4 78 -14 95q-17 30 -83 32q-5 -139 -19 -356q29 -3 52 -3q100 0 151 79q36 57 53 173zM385 272q-36 165 -89 388q-1 -2 -8 -18q-6 -13 -26 -72q-46 -142 -88 -301q52 -2 80 -2q53 0 131 5z" />
    <glyph glyph-name="Ccedilla" unicode="&#xc7;" horiz-adv-x="638" 
d="M377 1l-96 -114h-22l75 113q-137 8 -220 112q-79 97 -79 241q0 163 87 279q96 128 255 128q73 0 123 -38q53 -42 53 -114q0 -56 -40 -96q-39 -40 -94 -40q-38 0 -60.5 25.5t-22.5 67.5q0 49 29 82.5t76 33.5q62 0 82 -65q-1 52 -41 87t-92 35q-84 0 -120 -123
q-23 -81 -23 -191q0 -131 32 -236q47 -153 146 -153q61 0 104 42q45 43 45 103q-2 16 -2 37q0 23 12 24q19 -7 19 -58q0 -81 -74 -132q-61 -42 -152 -50z" />
    <glyph glyph-name="Egrave" unicode="&#xc8;" horiz-adv-x="627" 
d="M575 304h17l-4 -152q-5 -89 -18 -152l-15 1l1 19l-1 9q-115 -3 -204 -3q-183 0 -329 12q-7 14 -7 23v10q25 -7 66 -9q21 -1 65 -5q0 428 34 654l-33 -1q-38 -1 -85 10q3 19 13 32q169 -23 410 -23q41 0 76 9l2 22h7q1 0 15 -2q-5 -56 -7 -209l-12 -2l-12 2q2 18 2 27
q0 73 -55 109q-47 31 -124 29h-36q3 -60 3 -123q0 -83 -6 -159q27 -4 54 -4q24 0 46 3q4 49 3 110l22 -2v-42q1 -79 -12 -210l-17 -3q-4 77 -14 96q-18 30 -84 33q-5 -140 -19 -360q25 -4 53 -4q101 0 152 80q36 56 53 175zM394 800l-119 141h48l93 -141h-22z" />
    <glyph glyph-name="Eacute" unicode="&#xc9;" horiz-adv-x="627" 
d="M575 304h17l-4 -152q-5 -89 -18 -152l-15 1l1 19l-1 9q-115 -3 -204 -3q-183 0 -329 12q-7 14 -7 23v10q25 -7 66 -9q21 -1 65 -5q0 428 34 654l-33 -1q-38 -1 -85 10q3 19 13 32q169 -23 410 -23q41 0 76 9l2 22h7q1 0 15 -2q-5 -56 -7 -209l-12 -2l-12 2q2 18 2 27
q0 73 -55 109q-47 31 -124 29h-36q3 -60 3 -123q0 -83 -6 -159q27 -4 54 -4q24 0 46 3q4 49 3 110l22 -2v-42q1 -79 -12 -210l-17 -3q-4 77 -14 96q-18 30 -84 33q-5 -140 -19 -360q25 -4 53 -4q101 0 152 80q36 56 53 175zM377 941h49l-119 -141h-22z" />
    <glyph glyph-name="Ecircumflex" unicode="&#xca;" horiz-adv-x="627" 
d="M575 304h17l-4 -152q-5 -89 -18 -152l-15 1l1 19l-1 9q-115 -3 -204 -3q-183 0 -329 12q-7 14 -7 23v10q25 -7 66 -9q21 -1 65 -5q0 428 34 654l-33 -1q-38 -1 -85 10q3 19 13 32q169 -23 410 -23q41 0 76 9l2 22h7q1 0 15 -2q-5 -56 -7 -209l-12 -2l-12 2q2 18 2 27
q0 73 -55 109q-47 31 -124 29h-36q3 -60 3 -123q0 -83 -6 -159q27 -4 54 -4q24 0 46 3q4 49 3 110l22 -2v-42q1 -79 -12 -210l-17 -3q-4 77 -14 96q-18 30 -84 33q-5 -140 -19 -360q25 -4 53 -4q101 0 152 80q36 56 53 175zM339 942l112 -142h-21l-91 83l-93 -83h-21z" />
    <glyph glyph-name="Edieresis" unicode="&#xcb;" horiz-adv-x="627" 
d="M575 304h17l-4 -152q-5 -89 -18 -152l-15 1l1 19l-1 9q-115 -3 -204 -3q-183 0 -329 12q-7 14 -7 23v10q25 -7 66 -9q21 -1 65 -5q0 428 34 654l-33 -1q-38 -1 -85 10q3 19 13 32q169 -23 410 -23q41 0 76 9l2 22h7q1 0 15 -2q-5 -56 -7 -209l-12 -2l-12 2q2 18 2 27
q0 73 -55 109q-47 31 -124 29h-36q3 -60 3 -123q0 -83 -6 -159q27 -4 54 -4q24 0 46 3q4 49 3 110l22 -2v-42q1 -79 -12 -210l-17 -3q-4 77 -14 96q-18 30 -84 33q-5 -140 -19 -360q25 -4 53 -4q101 0 152 80q36 56 53 175zM453 840q0 -17 -12 -28.5t-28 -11.5t-27.5 11.5
t-11.5 28.5q0 16 11.5 27.5t27.5 11.5t28 -11.5t12 -27.5zM304 840q0 -17 -11.5 -28.5t-27.5 -11.5q-17 0 -28.5 11.5t-11.5 28.5q0 16 11.5 27.5t28.5 11.5q16 0 27.5 -11.5t11.5 -27.5z" />
    <glyph glyph-name="Igrave" unicode="&#xcc;" horiz-adv-x="347" 
d="M312 750l-2 -18q-24 6 -47 5l-12 -1q7 -167 7 -335q0 -187 -11 -368q7 0 63 2l1 -14v-8q-116 -16 -219 -14l-40 1q-9 17 -8 29v9q26 -6 43 -6q-7 123 -7 276q0 196 14 425q-22 -3 -55 -20l-4 29q53 18 131 18q59 0 146 -10zM224 800l-119 141h48l93 -141h-22z" />
    <glyph glyph-name="Iacute" unicode="&#xcd;" horiz-adv-x="347" 
d="M312 750l-2 -18q-24 6 -47 5l-12 -1q7 -167 7 -335q0 -187 -11 -368q7 0 63 2l1 -14v-8q-116 -16 -219 -14l-40 1q-9 17 -8 29v9q26 -6 43 -6q-7 123 -7 276q0 196 14 425q-22 -3 -55 -20l-4 29q53 18 131 18q59 0 146 -10zM197 941h49l-119 -141h-22z" />
    <glyph glyph-name="Icircumflex" unicode="&#xce;" horiz-adv-x="347" 
d="M312 750l-2 -18q-24 6 -47 5l-12 -1q7 -167 7 -335q0 -187 -11 -368q7 0 63 2l1 -14v-8q-116 -16 -219 -14l-40 1q-9 17 -8 29v9q26 -6 43 -6q-7 123 -7 276q0 196 14 425q-22 -3 -55 -20l-4 29q53 18 131 18q59 0 146 -10zM169 942l112 -142h-21l-91 83l-93 -83h-21z
" />
    <glyph glyph-name="Idieresis" unicode="&#xcf;" horiz-adv-x="347" 
d="M312 750l-2 -18q-24 6 -47 5l-12 -1q7 -167 7 -335q0 -187 -11 -368q7 0 63 2l1 -14v-8q-116 -16 -219 -14l-40 1q-9 17 -8 29v9q26 -6 43 -6q-7 123 -7 276q0 196 14 425q-22 -3 -55 -20l-4 29q53 18 131 18q59 0 146 -10zM283 840q0 -17 -12 -28.5t-28 -11.5
t-27.5 11.5t-11.5 28.5q0 16 11.5 27.5t27.5 11.5t28 -11.5t12 -27.5zM134 840q0 -17 -11.5 -28.5t-27.5 -11.5q-17 0 -28.5 11.5t-11.5 28.5q0 16 11.5 27.5t28.5 11.5q16 0 27.5 -11.5t11.5 -27.5z" />
    <glyph glyph-name="Eth" unicode="&#xd0;" horiz-adv-x="687" 
d="M36 724l6 32q29 -4 74 -4q46 0 111 4t111 4q145 0 233 -118q81 -106 81 -256q0 -211 -170 -309q-134 -77 -363 -77q-23 0 -73 2q-11 21 -10 36q19 -3 101 -3q-7 171 -9 318l-57 2q-3 6 -3 15q0 6 3 20l57 2q0 170 10 330q-9 -1 -35 -1q-41 0 -67 3zM330 393l50 -2v-37
l-48 -1q2 -90 2 -130q0 -93 -6 -180q63 -1 94.5 61t31.5 187q0 19 -3 102l-3 134q-6 96 -30 145q-31 67 -98 64l-14 -1q9 -114 24 -342zM398 371q0 -9 -3 -16z" />
    <glyph glyph-name="Ntilde" unicode="&#xd1;" horiz-adv-x="750" 
d="M735 760q0 -14 -11 -22q-33 8 -64 7h-16q-31 -211 -37 -685q47 2 95 12l1 -9q0 -7 -6 -16q-73 -23 -204 -47q-202 292 -315 605q-9 -81 -9 -185q0 -165 22 -372q52 0 85 13q-5 -29 -15 -44q-150 5 -226 19l5 19q19 -3 82 -10q3 285 42 670q-64 -6 -107 -22q-4 12 -4 22
q1 5 2 14q107 17 248 17q134 -288 279 -518q6 89 6 179q0 179 -24 333q-50 -10 -97 -26q-3 20 11 46q52 6 118 6q68 0 139 -6zM494 888l17 -15q-24 -73 -74 -73q-14 0 -57 25q-43 26 -64 26q-36 0 -54 -51l-17 16q30 72 80 72q27 0 65 -26t53 -26q27 0 51 52z" />
    <glyph glyph-name="Ograve" unicode="&#xd2;" horiz-adv-x="849" 
d="M422 0q-160 0 -273 109q-114 109 -114 268q0 158 116 271q115 112 276 112q157 0 272 -110q115 -109 115 -268q0 -158 -116 -271q-116 -111 -276 -111zM599 428q0 136 -22 199q-37 111 -144 111q-123 0 -160 -136q-19 -66 -19 -235q0 -160 20 -223q38 -120 164 -120
q68 0 113 49q42 48 42 117q0 40 3 119q3 80 3 119zM484 800l-119 141h48l93 -141h-22z" />
    <glyph glyph-name="Oacute" unicode="&#xd3;" horiz-adv-x="849" 
d="M422 0q-160 0 -273 109q-114 109 -114 268q0 158 116 271q115 112 276 112q157 0 272 -110q115 -109 115 -268q0 -158 -116 -271q-116 -111 -276 -111zM599 428q0 136 -22 199q-37 111 -144 111q-123 0 -160 -136q-19 -66 -19 -235q0 -160 20 -223q38 -120 164 -120
q68 0 113 49q42 48 42 117q0 40 3 119q3 80 3 119zM457 941h49l-119 -141h-22z" />
    <glyph glyph-name="Ocircumflex" unicode="&#xd4;" horiz-adv-x="849" 
d="M422 0q-160 0 -273 109q-114 109 -114 268q0 158 116 271q115 112 276 112q157 0 272 -110q115 -109 115 -268q0 -158 -116 -271q-116 -111 -276 -111zM599 428q0 136 -22 199q-37 111 -144 111q-123 0 -160 -136q-19 -66 -19 -235q0 -160 20 -223q38 -120 164 -120
q68 0 113 49q42 48 42 117q0 40 3 119q3 80 3 119zM429 942l112 -142h-21l-91 83l-93 -83h-21z" />
    <glyph glyph-name="Otilde" unicode="&#xd5;" horiz-adv-x="849" 
d="M422 0q-160 0 -273 109q-114 109 -114 268q0 158 116 271q115 112 276 112q157 0 272 -110q115 -109 115 -268q0 -158 -116 -271q-116 -111 -276 -111zM599 428q0 136 -22 199q-37 111 -144 111q-123 0 -160 -136q-19 -66 -19 -235q0 -160 20 -223q38 -120 164 -120
q68 0 113 49q42 48 42 117q0 40 3 119q3 80 3 119zM544 888l17 -15q-24 -73 -74 -73q-14 0 -57 25q-43 26 -64 26q-36 0 -54 -51l-17 16q30 72 80 72q27 0 65 -26t53 -26q27 0 51 52z" />
    <glyph glyph-name="Odieresis" unicode="&#xd6;" horiz-adv-x="849" 
d="M422 0q-160 0 -273 109q-114 109 -114 268q0 158 116 271q115 112 276 112q157 0 272 -110q115 -109 115 -268q0 -158 -116 -271q-116 -111 -276 -111zM599 428q0 136 -22 199q-37 111 -144 111q-123 0 -160 -136q-19 -66 -19 -235q0 -160 20 -223q38 -120 164 -120
q68 0 113 49q42 48 42 117q0 40 3 119q3 80 3 119zM543 840q0 -17 -12 -28.5t-28 -11.5t-27.5 11.5t-11.5 28.5q0 16 11.5 27.5t27.5 11.5t28 -11.5t12 -27.5zM394 840q0 -17 -11.5 -28.5t-27.5 -11.5q-17 0 -28.5 11.5t-11.5 28.5q0 16 11.5 27.5t28.5 11.5
q16 0 27.5 -11.5t11.5 -27.5z" />
    <glyph glyph-name="multiply" unicode="&#xd7;" horiz-adv-x="313" 
d="M278 313l-35 -36l-86 87l-87 -87l-35 36l86 86l-86 86l35 36l87 -87l86 87l35 -36l-86 -86z" />
    <glyph glyph-name="Oslash" unicode="&#xd8;" horiz-adv-x="844" 
d="M420 0q-103 0 -191 49l-33 -51h-32l42 65q-79 51 -125 135t-46 177q0 158 115 269q115 112 275 112q102 0 191 -50l33 52h31l-41 -66q77 -50 124 -135q46 -83 46 -177q0 -158 -116 -269q-115 -111 -273 -111zM266 158l305 478q-39 98 -140 98q-122 0 -160 -137
q-19 -66 -19 -235q0 -115 14 -204zM596 425q0 109 -15 177l-305 -478q42 -100 159 -100q68 0 112 48q43 47 43 117q0 39 3 118t3 118z" />
    <glyph glyph-name="Ugrave" unicode="&#xd9;" horiz-adv-x="552" 
d="M537 742l-3 -23l-18 1q-5 1 -22 -1q-33 -255 -33 -456q0 -122 12 -224l-23 -3l-6 26q-68 -62 -162 -62q-263 0 -263 453q0 162 28 255l-30 6q-2 22 -2 27t2 19q44 -14 112 -25l115 -14q-14 -123 -14 -272q0 -18 -1 -41v-61q0 -320 90 -320q78 0 99 114q8 46 8 174
q0 145 -15 401q-38 2 -53 2q-2 6 -2 11q0 13 4 22q93 -23 177 -9zM344 800l-119 141h48l93 -141h-22z" />
    <glyph glyph-name="Uacute" unicode="&#xda;" horiz-adv-x="552" 
d="M537 742l-3 -23l-18 1q-5 1 -22 -1q-33 -255 -33 -456q0 -122 12 -224l-23 -3l-6 26q-68 -62 -162 -62q-263 0 -263 453q0 162 28 255l-30 6q-2 22 -2 27t2 19q44 -14 112 -25l115 -14q-14 -123 -14 -272q0 -18 -1 -41v-61q0 -320 90 -320q78 0 99 114q8 46 8 174
q0 145 -15 401q-38 2 -53 2q-2 6 -2 11q0 13 4 22q93 -23 177 -9zM317 941h49l-119 -141h-22z" />
    <glyph glyph-name="Ucircumflex" unicode="&#xdb;" horiz-adv-x="552" 
d="M537 742l-3 -23l-18 1q-5 1 -22 -1q-33 -255 -33 -456q0 -122 12 -224l-23 -3l-6 26q-68 -62 -162 -62q-263 0 -263 453q0 162 28 255l-30 6q-2 22 -2 27t2 19q44 -14 112 -25l115 -14q-14 -123 -14 -272q0 -18 -1 -41v-61q0 -320 90 -320q78 0 99 114q8 46 8 174
q0 145 -15 401q-38 2 -53 2q-2 6 -2 11q0 13 4 22q93 -23 177 -9zM279 942l112 -142h-21l-91 83l-93 -83h-21z" />
    <glyph glyph-name="Udieresis" unicode="&#xdc;" horiz-adv-x="552" 
d="M537 742l-3 -23l-18 1q-5 1 -22 -1q-33 -255 -33 -456q0 -122 12 -224l-23 -3l-6 26q-68 -62 -162 -62q-263 0 -263 453q0 162 28 255l-30 6q-2 22 -2 27t2 19q44 -14 112 -25l115 -14q-14 -123 -14 -272q0 -18 -1 -41v-61q0 -320 90 -320q78 0 99 114q8 46 8 174
q0 145 -15 401q-38 2 -53 2q-2 6 -2 11q0 13 4 22q93 -23 177 -9zM403 840q0 -17 -12 -28.5t-28 -11.5t-27.5 11.5t-11.5 28.5q0 16 11.5 27.5t27.5 11.5t28 -11.5t12 -27.5zM254 840q0 -17 -11.5 -28.5t-27.5 -11.5q-17 0 -28.5 11.5t-11.5 28.5q0 16 11.5 27.5t28.5 11.5
q16 0 27.5 -11.5t11.5 -27.5z" />
    <glyph glyph-name="Yacute" unicode="&#xdd;" horiz-adv-x="693" 
d="M678 745l-2 -23l-27 2q-49 -68 -180 -294q15 -223 10 -389l83 13q-4 -22 -17 -36q-120 -18 -219 -18q-62 0 -126 8q-4 14 -3 24v17q39 -9 66 -10q4 73 5 181q3 119 6 182q-113 140 -214 310q-21 -1 -42 -10q-3 8 -3 16q0 12 4 28q82 8 164 8q52 0 167 -4l2 -11l-2 -14
l-25 1l-27 -1q48 -120 148 -262q15 24 60 141q34 88 75 130q-61 0 -78 -1l4 27h21q56 2 150 -15zM397 941h49l-119 -141h-22z" />
    <glyph glyph-name="Thorn" unicode="&#xde;" horiz-adv-x="529" 
d="M254 170q-4 -88 -7 -137q7 0 63 2l1 -14v-8q-116 -16 -219 -14l-40 1q-9 19 -8 31v7q27 -6 43 -6q-7 123 -7 276q0 196 14 425q-23 -3 -55 -20q-4 13 -4 29q53 18 131 18q59 0 146 -10l-2 -18q-24 6 -47 5l-12 -1l5 -147l26 2q90 5 161 -57t71 -153q0 -90 -71 -152
q-70 -61 -163 -61q-8 0 -26 2zM356 319q0 251 -76 251q-14 0 -23 -4q4 -188 -2 -366q14 -11 31 -11q70 0 70 130z" />
    <glyph glyph-name="germandbls" unicode="&#xdf;" 
d="M477 654l-38 -4q-59 -20 -59 -67q0 -44 88 -99q148 -94 162 -106q88 -70 88 -151q0 -96 -77 -162q-77 -65 -173 -65q-66 0 -109 25q-55 30 -55 90q0 40 30 70q30 31 70 31q43 0 72.5 -26t29.5 -66q0 -32 -25 -54t-59 -22t-63 29q-2 -53 106 -53q51 0 95 32t44 83
q0 55 -85 113l-158 100q-85 64 -85 134t49 122q45 48 116 65q0 31 -37 52q-31 18 -65 18q-73 0 -109 -88q-27 -66 -27 -151q0 -66 17 -213q16 -138 15 -211v-39h84l13 -39h-14q-1 0 -91 2q-67 3 -104 3q-72 0 -108 -9l2 18l34 8q-25 159 -25 336q0 161 26 225q37 90 164 151
q50 25 135 25q53 0 87 -27q38 -29 39 -80z" />
    <glyph glyph-name="agrave" unicode="&#xe0;" horiz-adv-x="384" 
d="M332 56l37 15l-11 -39q-51 -12 -96 -12q-27 0 -60 5q-34 -25 -69 -25q-41 0 -81 36q-26 38 -26 88q0 39 15 87q39 -1 146 23q-8 82 -11 93q-12 60 -43 79q-14 8 -26 8q-35 0 -53 -43q14 15 30 15q8 0 20 -5q34 -18 34 -63q0 -33 -19.5 -59t-48.5 -24q-28 2 -42 26
q-13 20 -13 49q0 62 45 104q46 43 110 46q98 5 144 -73q36 -63 36 -172q0 -79 -18 -159zM200 35q0 57 -12 186q-50 -14 -50 -90q0 -37 15 -64q18 -30 47 -32zM244 520l-119 141h48l93 -141h-22z" />
    <glyph glyph-name="aacute" unicode="&#xe1;" horiz-adv-x="384" 
d="M332 56l37 15l-11 -39q-51 -12 -96 -12q-27 0 -60 5q-34 -25 -69 -25q-41 0 -81 36q-26 38 -26 88q0 39 15 87q39 -1 146 23q-8 82 -11 93q-12 60 -43 79q-14 8 -26 8q-35 0 -53 -43q14 15 30 15q8 0 20 -5q34 -18 34 -63q0 -33 -19.5 -59t-48.5 -24q-28 2 -42 26
q-13 20 -13 49q0 62 45 104q46 43 110 46q98 5 144 -73q36 -63 36 -172q0 -79 -18 -159zM200 35q0 57 -12 186q-50 -14 -50 -90q0 -37 15 -64q18 -30 47 -32zM217 661h49l-119 -141h-22z" />
    <glyph glyph-name="acircumflex" unicode="&#xe2;" horiz-adv-x="384" 
d="M332 56l37 15l-11 -39q-51 -12 -96 -12q-27 0 -60 5q-34 -25 -69 -25q-41 0 -81 36q-26 38 -26 88q0 39 15 87q39 -1 146 23q-8 82 -11 93q-12 60 -43 79q-14 8 -26 8q-35 0 -53 -43q14 15 30 15q8 0 20 -5q34 -18 34 -63q0 -33 -19.5 -59t-48.5 -24q-28 2 -42 26
q-13 20 -13 49q0 62 45 104q46 43 110 46q98 5 144 -73q36 -63 36 -172q0 -79 -18 -159zM200 35q0 57 -12 186q-50 -14 -50 -90q0 -37 15 -64q18 -30 47 -32zM189 662l112 -142h-21l-91 83l-93 -83h-21z" />
    <glyph glyph-name="atilde" unicode="&#xe3;" horiz-adv-x="384" 
d="M332 56l37 15l-11 -39q-51 -12 -96 -12q-27 0 -60 5q-34 -25 -69 -25q-41 0 -81 36q-26 38 -26 88q0 39 15 87q39 -1 146 23q-8 82 -11 93q-12 60 -43 79q-14 8 -26 8q-35 0 -53 -43q14 15 30 15q8 0 20 -5q34 -18 34 -63q0 -33 -19.5 -59t-48.5 -24q-28 2 -42 26
q-13 20 -13 49q0 62 45 104q46 43 110 46q98 5 144 -73q36 -63 36 -172q0 -79 -18 -159zM200 35q0 57 -12 186q-50 -14 -50 -90q0 -37 15 -64q18 -30 47 -32zM294 608l17 -15q-24 -73 -74 -73q-14 0 -57 25q-43 26 -64 26q-36 0 -54 -51l-17 16q30 72 80 72q27 0 65 -26
t53 -26q27 0 51 52z" />
    <glyph glyph-name="adieresis" unicode="&#xe4;" horiz-adv-x="384" 
d="M332 56l37 15l-11 -39q-51 -12 -96 -12q-27 0 -60 5q-34 -25 -69 -25q-41 0 -81 36q-26 38 -26 88q0 39 15 87q39 -1 146 23q-8 82 -11 93q-12 60 -43 79q-14 8 -26 8q-35 0 -53 -43q14 15 30 15q8 0 20 -5q34 -18 34 -63q0 -33 -19.5 -59t-48.5 -24q-28 2 -42 26
q-13 20 -13 49q0 62 45 104q46 43 110 46q98 5 144 -73q36 -63 36 -172q0 -79 -18 -159zM200 35q0 57 -12 186q-50 -14 -50 -90q0 -37 15 -64q18 -30 47 -32zM303 560q0 -17 -12 -28.5t-28 -11.5t-27.5 11.5t-11.5 28.5q0 16 11.5 27.5t27.5 11.5t28 -11.5t12 -27.5z
M154 560q0 -17 -11.5 -28.5t-27.5 -11.5q-17 0 -28.5 11.5t-11.5 28.5q0 16 11.5 27.5t28.5 11.5q16 0 27.5 -11.5t11.5 -27.5z" />
    <glyph glyph-name="aring" unicode="&#xe5;" horiz-adv-x="384" 
d="M200 35q0 57 -12 186q-50 -14 -50 -90q0 -37 15 -64q18 -30 47 -32zM249 519q0 -38 -31 -62q132 -29 132 -241q0 -80 -18 -160l37 15l-11 -39q-51 -12 -96 -12q-27 0 -60 5q-34 -25 -69 -25q-41 0 -81 36q-26 38 -26 88q0 39 15 87q39 -1 146 23q-8 82 -11 93
q-12 60 -43 79q-14 8 -26 8q-35 0 -53 -43q24 12 39 12q5 0 11 -2q34 -18 34 -63q0 -33 -19.5 -59t-48.5 -24q-28 2 -42 26q-13 20 -13 49q0 50 30.5 88.5t80.5 53.5q-37 24 -37 67q0 32 23.5 56t56.5 24t56.5 -24t23.5 -56zM211 519q0 17 -12.5 29.5t-29.5 12.5
t-29.5 -12.5t-12.5 -29.5t12.5 -29.5t29.5 -12.5t29.5 12.5t12.5 29.5z" />
    <glyph glyph-name="ae" unicode="&#xe6;" horiz-adv-x="687" 
d="M494 0q-72 0 -133 41l-3 -9q-51 -12 -96 -12q-27 0 -60 5q-34 -25 -69 -25q-51 0 -80 38q-27 34 -27 86q0 39 15 87h12q31 0 134 23q-7 82 -15 109q-18 71 -65 71q-35 0 -53 -43q14 15 30 15q23 0 38.5 -21t15.5 -47q0 -29 -16 -54q-20 -29 -46 -29q-29 0 -45 21.5
t-16 53.5q0 66 51 109q49 41 115 41q88 0 131 -70q69 83 175 83q75 0 122 -53q48 -52 48 -129q0 -31 -8.5 -41t-37.5 -10q-86 0 -177 17q0 -18 -1 -35q-1 -14 -1 -34q0 -163 98 -163q60 0 83 35q18 28 18 92q0 24 15 24q11 0 18.5 -12.5t7.5 -25.5q0 -67 -58 -104
q-50 -34 -120 -34zM200 35q0 57 -12 186q-50 -14 -50 -90q0 -33 14 -61q17 -32 48 -35zM503 265q9 49 9 105q0 78 -28 78q-45 0 -45 -124q0 -13 1 -24v-24q40 -10 63 -11z" />
    <glyph glyph-name="ccedilla" unicode="&#xe7;" horiz-adv-x="444" 
d="M267 1l-83 -99h-17l65 98q-85 6 -141 59t-56 138q0 105 61 176q64 76 167 76q55 0 91.5 -34.5t36.5 -88.5q0 -46 -24 -80q-27 -40 -70 -40q-34 0 -52.5 23.5t-18.5 60.5q0 40 24 68.5t61 28.5q48 0 55 -61v11q1 34 -20 60.5t-51 26.5q-60 0 -89 -80q-21 -57 -21 -130
q0 -70 16 -118q24 -73 79 -73q92 0 92 126q0 24 14 24q23 0 23 -45q0 -56 -45 -91q-39 -32 -97 -36z" />
    <glyph glyph-name="egrave" unicode="&#xe8;" horiz-adv-x="468" 
d="M453 137q-1 -71 -63 -108q-50 -29 -117 -29q-94 0 -166 66q-72 67 -72 160q0 100 65 174q66 73 166 73q75 0 122 -53q48 -52 48 -129q0 -38 -13 -45q-7 -6 -48 -6q-71 0 -162 17q0 -18 -1 -35q-1 -15 -1 -34q0 -163 98 -163q62 0 84 37q17 28 17 90q0 24 15 24
q28 0 28 -39zM282 265q9 49 9 105q0 78 -28 78q-45 0 -45 -124q0 -13 1 -24v-24q33 -9 63 -11zM314 520l-119 141h48l93 -141h-22z" />
    <glyph glyph-name="eacute" unicode="&#xe9;" horiz-adv-x="468" 
d="M453 137q-1 -71 -63 -108q-50 -29 -117 -29q-94 0 -166 66q-72 67 -72 160q0 100 65 174q66 73 166 73q75 0 122 -53q48 -52 48 -129q0 -38 -13 -45q-7 -6 -48 -6q-71 0 -162 17q0 -18 -1 -35q-1 -15 -1 -34q0 -163 98 -163q62 0 84 37q17 28 17 90q0 24 15 24
q28 0 28 -39zM282 265q9 49 9 105q0 78 -28 78q-45 0 -45 -124q0 -13 1 -24v-24q33 -9 63 -11zM287 661h49l-119 -141h-22z" />
    <glyph glyph-name="ecircumflex" unicode="&#xea;" horiz-adv-x="468" 
d="M453 137q-1 -71 -63 -108q-50 -29 -117 -29q-94 0 -166 66q-72 67 -72 160q0 100 65 174q66 73 166 73q75 0 122 -53q48 -52 48 -129q0 -38 -13 -45q-7 -6 -48 -6q-71 0 -162 17q0 -18 -1 -35q-1 -15 -1 -34q0 -163 98 -163q62 0 84 37q17 28 17 90q0 24 15 24
q28 0 28 -39zM282 265q9 49 9 105q0 78 -28 78q-45 0 -45 -124q0 -13 1 -24v-24q33 -9 63 -11zM249 662l112 -142h-21l-91 83l-93 -83h-21z" />
    <glyph glyph-name="edieresis" unicode="&#xeb;" horiz-adv-x="468" 
d="M453 137q-1 -71 -63 -108q-50 -29 -117 -29q-94 0 -166 66q-72 67 -72 160q0 100 65 174q66 73 166 73q75 0 122 -53q48 -52 48 -129q0 -38 -13 -45q-7 -6 -48 -6q-71 0 -162 17q0 -18 -1 -35q-1 -15 -1 -34q0 -163 98 -163q62 0 84 37q17 28 17 90q0 24 15 24
q28 0 28 -39zM282 265q9 49 9 105q0 78 -28 78q-45 0 -45 -124q0 -13 1 -24v-24q33 -9 63 -11zM363 560q0 -17 -12 -28.5t-28 -11.5t-27.5 11.5t-11.5 28.5q0 16 11.5 27.5t27.5 11.5t28 -11.5t12 -27.5zM214 560q0 -17 -11.5 -28.5t-27.5 -11.5q-17 0 -28.5 11.5
t-11.5 28.5q0 16 11.5 27.5t28.5 11.5q16 0 27.5 -11.5t11.5 -27.5z" />
    <glyph glyph-name="igrave" unicode="&#xec;" horiz-adv-x="275" 
d="M260 27v-21q-100 -7 -158 -6l-45 1q-8 10 -8 18v5q36 -2 43 -2q-8 82 -8 148q0 90 12 195q-26 -1 -49 -8q-6 10 -12 35q28 2 44 2q77 0 153 -14q11 -173 11 -226q0 -64 -6 -128zM194 520l-119 141h48l93 -141h-22z" />
    <glyph glyph-name="iacute" unicode="&#xed;" horiz-adv-x="275" 
d="M260 27v-21q-100 -7 -158 -6l-45 1q-8 10 -8 18v5q36 -2 43 -2q-8 82 -8 148q0 90 12 195q-26 -1 -49 -8q-6 10 -12 35q28 2 44 2q77 0 153 -14q11 -173 11 -226q0 -64 -6 -128zM167 661h49l-119 -141h-22z" />
    <glyph glyph-name="icircumflex" unicode="&#xee;" horiz-adv-x="285" 
d="M270 27v-21q-100 -7 -158 -6l-45 1q-8 10 -8 18v5q36 -2 43 -2q-8 82 -8 148q0 90 12 195q-26 -1 -49 -8q-6 10 -12 35q28 2 44 2q77 0 153 -14q11 -173 11 -226q0 -64 -6 -128zM149 662l112 -142h-21l-91 83l-93 -83h-21z" />
    <glyph glyph-name="idieresis" unicode="&#xef;" horiz-adv-x="278" 
d="M260 27v-21q-100 -7 -158 -6l-45 1q-8 10 -8 18v5q36 -2 43 -2q-8 82 -8 148q0 90 12 195q-26 -1 -49 -8q-6 10 -12 35q28 2 44 2q77 0 153 -14q11 -173 11 -226q0 -64 -6 -128zM263 560q0 -17 -12 -28.5t-28 -11.5t-27.5 11.5t-11.5 28.5q0 16 11.5 27.5t27.5 11.5
t28 -11.5t12 -27.5zM114 560q0 -17 -11.5 -28.5t-27.5 -11.5q-17 0 -28.5 11.5t-11.5 28.5q0 16 11.5 27.5t28.5 11.5q16 0 27.5 -11.5t11.5 -27.5z" />
    <glyph glyph-name="eth" unicode="&#xf0;" horiz-adv-x="624" 
d="M293 0q-112 0 -191 61q-87 67 -87 175q0 90 60 148q59 58 150 58q102 0 172 -59q3 35 3 70q0 87 -16 154l-72 -14q-8 7 -6 21v9l68 18q-34 99 -112 99q-19 0 -37 -6l-2 11l2 10q25 5 48 5q131 0 223 -93l84 16q8 -17 7 -24v-6l-65 -16q87 -113 87 -277q0 -150 -82 -251
q-88 -109 -234 -109zM389 311q0 35 -21 63q-23 32 -55 32q-65 0 -115 -111q-43 -92 -43 -169q0 -88 65 -88q69 0 123 105q46 89 46 168z" />
    <glyph glyph-name="ntilde" unicode="&#xf1;" horiz-adv-x="614" 
d="M599 19q-84 4 -102 4q-57 4 -101 12q-1 86 -11 305q-5 77 -43 77q-26 0 -48 -36q-19 -31 -22 -59q-4 -45 -1 -139q2 -98 0 -140q16 4 37 16l1 -11q0 -17 -4 -34q-87 -12 -172 -12q-22 0 -64 2v22q18 -2 23 -2l16 1q-12 86 -12 185q0 89 11 210q-45 -8 -68 -23
q-5 11 -3 21l1 14q63 18 154 18h62q6 -44 15 -74q22 45 63.5 71.5t90.5 26.5q92 0 124 -105q16 -54 16 -182q0 -70 -11 -134q20 -2 38 3q7 -12 10 -37zM415 608l17 -15q-24 -73 -74 -73q-14 0 -57 25q-43 26 -64 26q-36 0 -54 -51l-17 16q30 72 80 72q27 0 65 -26t53 -26
q27 0 51 52z" />
    <glyph glyph-name="ograve" unicode="&#xf2;" horiz-adv-x="550" 
d="M515 249q0 -103 -70 -176q-69 -73 -170 -73t-171 73q-69 73 -69 176q0 101 69 174q71 74 171 74q101 0 170 -74q70 -73 70 -174zM365 123q0 89 -24 199q-31 150 -87 150q-51 0 -51 -95q0 -110 16 -202q26 -149 81 -149q31 0 49 35q16 28 16 62zM314 520l-119 141h48
l93 -141h-22z" />
    <glyph glyph-name="oacute" unicode="&#xf3;" horiz-adv-x="550" 
d="M515 249q0 -103 -70 -176q-69 -73 -170 -73t-171 73q-69 73 -69 176q0 101 69 174q71 74 171 74q101 0 170 -74q70 -73 70 -174zM365 123q0 89 -24 199q-31 150 -87 150q-51 0 -51 -95q0 -110 16 -202q26 -149 81 -149q31 0 49 35q16 28 16 62zM297 661h49l-119 -141h-22
z" />
    <glyph glyph-name="ocircumflex" unicode="&#xf4;" horiz-adv-x="550" 
d="M515 249q0 -103 -70 -176q-69 -73 -170 -73t-171 73q-69 73 -69 176q0 101 69 174q71 74 171 74q101 0 170 -74q70 -73 70 -174zM365 123q0 89 -24 199q-31 150 -87 150q-51 0 -51 -95q0 -110 16 -202q26 -149 81 -149q31 0 49 35q16 28 16 62zM269 662l112 -142h-21
l-91 83l-93 -83h-21z" />
    <glyph glyph-name="otilde" unicode="&#xf5;" horiz-adv-x="550" 
d="M515 249q0 -103 -70 -176q-69 -73 -170 -73t-171 73q-69 73 -69 176q0 101 69 174q71 74 171 74q101 0 170 -74q70 -73 70 -174zM365 123q0 89 -24 199q-31 150 -87 150q-51 0 -51 -95q0 -110 16 -202q26 -149 81 -149q31 0 49 35q16 28 16 62zM384 608l17 -15
q-24 -73 -74 -73q-14 0 -57 25q-43 26 -64 26q-36 0 -54 -51l-17 16q30 72 80 72q27 0 65 -26t53 -26q27 0 51 52z" />
    <glyph glyph-name="odieresis" unicode="&#xf6;" horiz-adv-x="550" 
d="M515 249q0 -103 -70 -176q-69 -73 -170 -73t-171 73q-69 73 -69 176q0 101 69 174q71 74 171 74q101 0 170 -74q70 -73 70 -174zM365 123q0 89 -24 199q-31 150 -87 150q-51 0 -51 -95q0 -110 16 -202q26 -149 81 -149q31 0 49 35q16 28 16 62zM383 560q0 -17 -12 -28.5
t-28 -11.5t-27.5 11.5t-11.5 28.5q0 16 11.5 27.5t27.5 11.5t28 -11.5t12 -27.5zM234 560q0 -17 -11.5 -28.5t-27.5 -11.5q-17 0 -28.5 11.5t-11.5 28.5q0 16 11.5 27.5t28.5 11.5q16 0 27.5 -11.5t11.5 -27.5z" />
    <glyph glyph-name="divide" unicode="&#xf7;" horiz-adv-x="364" 
d="M35 374v50h294v-50h-294zM138 496q0 17 12 29t29 12t29.5 -12t12.5 -29q0 -18 -12.5 -30t-29.5 -12t-29 12t-12 30zM138 306q0 17 12 29t29 12t29.5 -12t12.5 -29q0 -18 -12.5 -30t-29.5 -12t-29 12t-12 30z" />
    <glyph glyph-name="oslash" unicode="&#xf8;" horiz-adv-x="546" 
d="M511 247q0 -101 -69 -174t-169 -73q-67 0 -124 36l-26 -42h-21l33 52q-100 73 -100 201q0 99 69 173q69 73 169 73q67 0 124 -36l27 42h21l-33 -52q99 -73 99 -200zM217 176l113 176q-27 116 -77 116q-52 0 -52 -95q0 -105 16 -197zM335 328l-113 -178q10 -53 20 -77
q20 -48 55 -48q31 0 49 35q16 28 16 62q0 80 -27 206z" />
    <glyph glyph-name="ugrave" unicode="&#xf9;" horiz-adv-x="521" 
d="M505 43q1 -3 1 -10q0 -9 -3 -19q-38 -2 -55 -2q-63 0 -150 17q5 27 5 48v9q-53 -86 -135 -86q-69 0 -114 65q-39 57 -39 129q0 148 63 265q-12 5 -28 5q-19 0 -31 -6l-1 12q0 14 4 26q120 -17 200 -50q-5 -57 -31 -176q-24 -112 -24 -175q0 -57 40 -57q30 0 61 34
q33 36 37 65q9 57 10 151q3 97 11 151q-23 0 -50 -5q-5 15 -5 25v6q24 2 50 2q123 0 167 -18q-9 -264 -31 -411l11 -1q20 0 37 6zM324 520l-119 141h48l93 -141h-22z" />
    <glyph glyph-name="uacute" unicode="&#xfa;" horiz-adv-x="521" 
d="M505 43q1 -3 1 -10q0 -9 -3 -19q-38 -2 -55 -2q-63 0 -150 17q5 27 5 48v9q-53 -86 -135 -86q-69 0 -114 65q-39 57 -39 129q0 148 63 265q-12 5 -28 5q-19 0 -31 -6l-1 12q0 14 4 26q120 -17 200 -50q-5 -57 -31 -176q-24 -112 -24 -175q0 -57 40 -57q30 0 61 34
q33 36 37 65q9 57 10 151q3 97 11 151q-23 0 -50 -5q-5 15 -5 25v6q24 2 50 2q123 0 167 -18q-9 -264 -31 -411l11 -1q20 0 37 6zM297 661h49l-119 -141h-22z" />
    <glyph glyph-name="ucircumflex" unicode="&#xfb;" horiz-adv-x="521" 
d="M505 43q1 -3 1 -10q0 -9 -3 -19q-38 -2 -55 -2q-63 0 -150 17q5 27 5 48v9q-53 -86 -135 -86q-69 0 -114 65q-39 57 -39 129q0 148 63 265q-12 5 -28 5q-19 0 -31 -6l-1 12q0 14 4 26q120 -17 200 -50q-5 -57 -31 -176q-24 -112 -24 -175q0 -57 40 -57q30 0 61 34
q33 36 37 65q9 57 10 151q3 97 11 151q-23 0 -50 -5q-5 15 -5 25v6q24 2 50 2q123 0 167 -18q-9 -264 -31 -411l11 -1q20 0 37 6zM259 662l112 -142h-21l-91 83l-93 -83h-21z" />
    <glyph glyph-name="udieresis" unicode="&#xfc;" horiz-adv-x="521" 
d="M505 43q1 -3 1 -10q0 -9 -3 -19q-38 -2 -55 -2q-63 0 -150 17q5 27 5 48v9q-53 -86 -135 -86q-69 0 -114 65q-39 57 -39 129q0 148 63 265q-12 5 -28 5q-19 0 -31 -6l-1 12q0 14 4 26q120 -17 200 -50q-5 -57 -31 -176q-24 -112 -24 -175q0 -57 40 -57q30 0 61 34
q33 36 37 65q9 57 10 151q3 97 11 151q-23 0 -50 -5q-5 15 -5 25v6q24 2 50 2q123 0 167 -18q-9 -264 -31 -411l11 -1q20 0 37 6zM373 560q0 -17 -12 -28.5t-28 -11.5t-27.5 11.5t-11.5 28.5q0 16 11.5 27.5t27.5 11.5t28 -11.5t12 -27.5zM224 560q0 -17 -11.5 -28.5
t-27.5 -11.5q-17 0 -28.5 11.5t-11.5 28.5q0 16 11.5 27.5t28.5 11.5q16 0 27.5 -11.5t11.5 -27.5z" />
    <glyph glyph-name="yacute" unicode="&#xfd;" horiz-adv-x="601" 
d="M586 493l-10 -25q-32 21 -73 22q-49 -219 -60 -252q-50 -181 -112 -280q-84 -132 -193 -132q-50 0 -85 29q-38 32 -38 81t33 85t81 36q42 0 69.5 -26.5t27.5 -67.5q0 -44 -28 -75q-27 -32 -68 -32q-18 0 -32 8q8 -20 37 -20q69 0 123 74q30 40 72 135q-99 79 -263 376
q-8 0 -22 -8l-23 -11l-5 24q45 27 127 51q86 25 132 24l17 -1v-15v-19l-32 1h-13q24 -52 72 -140q44 -78 73 -139q31 115 49 296q-27 3 -60 -3l3 23q18 3 44 3q114 0 157 -22zM347 671h49l-119 -141h-22z" />
    <glyph glyph-name="thorn" unicode="&#xfe;" horiz-adv-x="529" 
d="M254 140q-1 -40 -7 -247q7 0 63 2l1 -14v-8q-116 -16 -219 -14l-40 1q-9 19 -8 31v7q27 -6 43 -6q-7 123 -7 276q0 336 14 565q-23 -3 -55 -20q-4 13 -4 29q53 18 131 18q59 0 146 -10l-2 -18q-24 6 -47 5l-12 -1l5 -177l26 2q90 5 161 -57t71 -153q0 -90 -71 -152
q-70 -61 -163 -61q-8 0 -26 2zM356 289q0 251 -76 251q-14 0 -23 -4q4 -188 -2 -366q14 -11 31 -11q70 0 70 130z" />
    <glyph glyph-name="ydieresis" unicode="&#xff;" horiz-adv-x="601" 
d="M586 493l-10 -25q-32 21 -73 22q-49 -219 -60 -252q-50 -181 -112 -280q-84 -132 -193 -132q-50 0 -85 29q-38 32 -38 81t33 85t81 36q42 0 69.5 -26.5t27.5 -67.5q0 -44 -28 -75q-27 -32 -68 -32q-18 0 -32 8q8 -20 37 -20q69 0 123 74q30 40 72 135q-99 79 -263 376
q-8 0 -22 -8l-23 -11l-5 24q45 27 127 51q86 25 132 24l17 -1v-15v-19l-32 1h-13q24 -52 72 -140q44 -78 73 -139q31 115 49 296q-27 3 -60 -3l3 23q18 3 44 3q114 0 157 -22zM423 570q0 -17 -12 -28.5t-28 -11.5t-27.5 11.5t-11.5 28.5q0 16 11.5 27.5t27.5 11.5t28 -11.5
t12 -27.5zM274 570q0 -17 -11.5 -28.5t-27.5 -11.5q-17 0 -28.5 11.5t-11.5 28.5q0 16 11.5 27.5t28.5 11.5q16 0 27.5 -11.5t11.5 -27.5z" />
    <glyph glyph-name="dotlessi" unicode="&#x131;" horiz-adv-x="275" 
d="M260 27v-21q-100 -7 -158 -6l-45 1q-8 10 -8 18v5q36 -2 43 -2q-8 82 -8 148q0 90 12 195q-26 -1 -49 -8q-6 10 -12 35q28 2 44 2q77 0 153 -14q11 -173 11 -226q0 -64 -6 -128z" />
    <glyph glyph-name="Lslash" unicode="&#x141;" horiz-adv-x="540" 
d="M52 755q-2 7 -1 19l2 15q38 11 98 11t139 -11q69 -11 105 -24q3 -1 1 -9t-4 -9q-34 10 -61 12q11 -266 1 -453l106 405l26 4l-139 -533q-8 -83 -13 -130q90 9 130 81q48 81 55 271l25 -1q3 -88 -10 -202l-28 -201q-10 -2 -21 3q1 11 0 27q-58 -2 -167 2q-127 4 -184 4
q-46 0 -66 -3q-10 22 -9 35q3 -1 95 -3q-10 367 -10 416q0 157 12 288q-27 -1 -82 -14z" />
    <glyph glyph-name="lslash" unicode="&#x142;" horiz-adv-x="312" 
d="M296 413l-56 -23q0 -203 -10 -356q6 -1 22 0l1 -14v-7q-116 -14 -175 -13l-41 1q-9 18 -9 31l1 6q30 -5 42 -5q-7 136 -6 292l-47 -16q-3 11 -3 23v10l50 21q1 154 13 363q-21 -3 -54 -20q-4 13 -4 28q48 18 118 18q29 0 94 -5q6 -149 8 -321l53 17q4 -7 4 -18
q0 -4 -1 -12z" />
    <glyph glyph-name="OE" unicode="&#x152;" horiz-adv-x="1077" 
d="M1045 303h17l-4 -152q-5 -95 -17 -152l-16 1l1 19v9q-116 -3 -205 -3q-125 0 -229 6v8q-81 -40 -174 -40q-158 0 -270 108q-113 110 -113 265q0 158 115 269q116 111 273 111q88 0 169 -38v31q165 -17 363 -17q39 0 76 8l2 23h7q4 0 15 -3q-5 -54 -7 -209l-12 -1l-12 1
q2 20 2 28q0 73 -55 109q-47 30 -123 29h-37q4 -55 4 -124q0 -81 -6 -158q25 -4 53 -4q24 0 46 3q4 49 3 110l22 -2l1 -42q1 -72 -13 -209l-17 -4q-4 77 -14 96q-16 30 -83 33v0v0v-1v0v-1v-1v0v-1v-1v-1v-1v-1v-1v-1v-1v-1v-1v-1v-1v-1v-1v-1v-1v-1v-1v-1v-1v-1v-1v-10
q0 -116 -20 -325q27 -4 53 -4q101 0 152 80q36 56 53 175zM594 423q0 134 -22 197q-38 110 -142 110q-122 0 -159 -135q-19 -66 -19 -232q0 -159 20 -222q38 -119 162 -119q68 0 111 48q43 47 43 117q0 39 3 117q3 79 3 119z" />
    <glyph glyph-name="oe" unicode="&#x153;" horiz-adv-x="866" 
d="M851 143q0 -62 -61 -99q-52 -31 -117 -31q-124 0 -196 101q-32 -52 -87 -83t-115 -31q-101 0 -171 73q-69 73 -69 176q0 101 69 174q71 74 171 74q60 0 114.5 -30.5t87.5 -82.5q30 46 82 74t107 28q76 0 122 -54q48 -52 48 -128q0 -39 -13 -46q-8 -5 -47 -5
q-72 0 -163 17q0 -18 -1 -35v-35q0 -162 97 -162q63 0 85 36q17 28 17 91q0 23 14 23q26 0 26 -45zM683 278q8 53 8 105q0 78 -28 78q-44 0 -44 -124v-24q1 -10 1 -24q32 -9 63 -11zM254 472q-51 0 -51 -93q0 -107 15 -201q26 -152 82 -152q31 0 49 35q16 28 16 62
q0 89 -24 199q-31 150 -87 150z" />
    <glyph glyph-name="Scaron" unicode="&#x160;" horiz-adv-x="522" 
d="M244 10q-111 0 -179 52q1 -29 10 -62l-24 4q-10 56 -10 113q0 69 22 188l14 -1q-4 -15 -4 -36q0 -77 46 -150q52 -85 123 -85q40 0 74 21q40 25 40 62q0 64 -83 126l-155 108q-83 69 -83 151q0 101 86 166q79 61 183 61q67 0 110 -25q-3 25 -12 43q15 10 33 14
q26 -95 26 -179q0 -48 -16 -86q-19 -52 -59 -52q-19 0 -33.5 12.5t-14.5 29.5t12.5 29t28.5 12q28 0 40 -37q13 23 13 55q0 56 -42 109q-42 52 -98 52q-41 0 -65 -29t-24 -73q0 -74 74 -139l136 -107q74 -66 74 -144q0 -91 -77 -150q-71 -53 -166 -53zM267 800l-112 142h21
l91 -83l93 83h21z" />
    <glyph glyph-name="scaron" unicode="&#x161;" horiz-adv-x="483" 
d="M199 0q-66 0 -109 25q-55 30 -55 90q0 40 30 70q30 31 70 31q43 0 72 -25.5t29 -66.5q0 -32 -25 -54t-58 -22q-34 0 -63 29q-2 -53 106 -53q53 0 93 31q46 33 46 84q0 53 -69 85l-127 51q-68 36 -68 106q0 83 67 140q64 54 150 54q44 0 82 -20q45 -23 45 -65
q0 -29 -25 -51t-56 -22q-30 0 -59 24q-28 25 -28 56q0 35 42 55h-7q-37 1 -69 -17q-37 -21 -37 -57q0 -44 70 -72q120 -48 132 -55q70 -43 70 -124q0 -95 -78 -163q-73 -64 -171 -64zM247 620l-112 142h21l91 -83l93 83h21z" />
    <glyph glyph-name="Ydieresis" unicode="&#x178;" horiz-adv-x="693" 
d="M678 745l-2 -23l-27 2q-49 -68 -180 -294q15 -223 10 -389l83 13q-4 -22 -17 -36q-120 -18 -219 -18q-62 0 -126 8q-4 14 -3 24v17q39 -9 66 -10q4 73 5 181q3 119 6 182q-113 140 -214 310q-21 -1 -42 -10q-3 8 -3 16q0 12 4 28q82 8 164 8q52 0 167 -4l2 -11l-2 -14
l-25 1l-27 -1q48 -120 148 -262q15 24 60 141q34 88 75 130q-61 0 -78 -1l4 27h21q56 2 150 -15zM483 840q0 -17 -12 -28.5t-28 -11.5t-27.5 11.5t-11.5 28.5q0 16 11.5 27.5t27.5 11.5t28 -11.5t12 -27.5zM334 840q0 -17 -11.5 -28.5t-27.5 -11.5q-17 0 -28.5 11.5
t-11.5 28.5q0 16 11.5 27.5t28.5 11.5q16 0 27.5 -11.5t11.5 -27.5z" />
    <glyph glyph-name="Zcaron" unicode="&#x17d;" horiz-adv-x="566" 
d="M531 734l-4 -18l-13 1q-1 -1 -23 -1q-73 -206 -209 -645q25 -3 46 -3q104 0 145 95q26 66 26 190h13h7q3 -91 3 -154q0 -118 -7 -199l-12 -1l-8 1v26q0 8 -1 13l-82 -1q-151 -2 -364 14q-1 3 -1 11q0 5 1 7l12 -1q6 0 24 3q66 317 225 647q-118 2 -182 -74t-72 -230
q-5 -1 -16 -1l-3 1v31q-1 132 23 312l21 2l-3 -22l282 1q90 0 172 -5zM288 800l-112 142h21l91 -83l93 83h21z" />
    <glyph glyph-name="zcaron" unicode="&#x17e;" horiz-adv-x="465" 
d="M442 235l7 -1v-20q1 -88 -33 -214l-25 7l6 26q-65 -15 -147 -15q-105 0 -205 23q-2 6 -2 11t1 16l29 -5q74 217 171 400q-42 5 -64 5q-70 0 -98 -37q-21 -27 -29 -103l-16 6l-2 71q0 42 11 111h8h11l-3 -27q14 2 50 2q210 0 298 -13q-80 -143 -192 -434q28 -3 54 -3
q143 0 159 193zM237 560l-112 142h21l91 -83l93 83h21z" />
    <glyph glyph-name="circumflex" unicode="&#x2c6;" horiz-adv-x="296" 
d="M149 942l112 -142h-21l-91 83l-93 -83h-21z" />
    <glyph glyph-name="caron" unicode="&#x2c7;" horiz-adv-x="296" 
d="M147 800l-112 142h21l91 -83l93 83h21z" />
    <glyph glyph-name="dotaccent" unicode="&#x2d9;" horiz-adv-x="149" 
d="M114 840q0 -17 -11.5 -28.5t-27.5 -11.5q-17 0 -28.5 11.5t-11.5 28.5q0 16 11.5 27.5t28.5 11.5q16 0 27.5 -11.5t11.5 -27.5z" />
    <glyph glyph-name="ring" unicode="&#x2da;" horiz-adv-x="230" 
d="M195 801q0 -33 -24 -56.5t-56 -23.5q-33 0 -56.5 23.5t-23.5 56.5q0 32 23.5 56t56.5 24q32 0 56 -24t24 -56zM157 801q0 17 -12.5 29.5t-29.5 12.5t-29.5 -12.5t-12.5 -29.5t12.5 -29.5t29.5 -12.5t29.5 12.5t12.5 29.5z" />
    <glyph glyph-name="tilde" unicode="&#x2dc;" horiz-adv-x="336" 
d="M284 888l17 -15q-24 -73 -74 -73q-14 0 -57 25q-43 26 -64 26q-36 0 -54 -51l-17 16q30 72 80 72q27 0 65 -26t53 -26q27 0 51 52z" />
    <glyph glyph-name="endash" unicode="&#x2013;" horiz-adv-x="741" 
d="M717 351q-62 -5 -348 -5q-290 0 -348 5q-6 17 0 55q59 8 348 7q296 0 348 -7q9 -29 0 -55z" />
    <glyph glyph-name="emdash" unicode="&#x2014;" horiz-adv-x="911" 
d="M887 351q-62 -5 -433 -5q-375 0 -433 5q-6 17 0 55q59 8 433 7q381 0 433 -7q9 -29 0 -55z" />
    <glyph glyph-name="quoteleft" unicode="&#x2018;" horiz-adv-x="248" 
d="M150 760q-38 -31 -55 -93q15 5 29 5q39 0 64 -22.5t25 -58.5t-27.5 -61t-64.5 -25q-39 0 -62.5 26.5t-23.5 68.5q0 52 33 97q33 47 82 63z" />
    <glyph glyph-name="quoteright" unicode="&#x2019;" horiz-adv-x="248" 
d="M98 505q38 31 55 93q-12 -4 -29 -4q-38 0 -63.5 22.5t-25.5 57.5q0 36 27.5 61t64.5 25q39 0 62.5 -26.5t23.5 -67.5q0 -52 -33 -98q-33 -47 -82 -63z" />
    <glyph glyph-name="quotesinglbase" unicode="&#x201a;" horiz-adv-x="248" 
d="M98 -88q39 31 55 92q-12 -4 -29 -4q-38 0 -63.5 22.5t-25.5 57.5q0 36 27.5 61t64.5 25q39 0 62.5 -26.5t23.5 -67.5q0 -51 -33 -98q-32 -45 -82 -62z" />
    <glyph glyph-name="quotereversed" unicode="&#x201b;" horiz-adv-x="248" 
d="M150 505q-49 16 -82 63q-33 46 -33 98q0 41 23.5 67.5t62.5 26.5q37 0 64.5 -25t27.5 -61t-25 -58t-64 -22q-17 0 -29 4q17 -62 55 -93z" />
    <glyph glyph-name="quotedblleft" unicode="&#x201c;" horiz-adv-x="448" 
d="M350 760q-38 -31 -55 -93q15 5 29 5q39 0 64 -22.5t25 -58.5t-27.5 -61t-64.5 -25q-39 0 -62.5 26.5t-23.5 68.5q0 52 33 97q33 47 82 63zM150 760q-38 -31 -55 -93q15 5 29 5q39 0 64 -22.5t25 -58.5t-27.5 -61t-64.5 -25q-39 0 -62.5 26.5t-23.5 68.5q0 52 33 97
q33 47 82 63z" />
    <glyph glyph-name="quotedblright" unicode="&#x201d;" horiz-adv-x="448" 
d="M98 505q38 31 55 93q-12 -4 -29 -4q-38 0 -63.5 22.5t-25.5 57.5q0 36 27.5 61t64.5 25q39 0 62.5 -26.5t23.5 -67.5q0 -52 -33 -98q-33 -47 -82 -63zM298 505q38 31 55 93q-12 -4 -29 -4q-38 0 -63.5 22.5t-25.5 57.5q0 36 27.5 61t64.5 25q39 0 62.5 -26.5t23.5 -67.5
q0 -52 -33 -98q-33 -47 -82 -63z" />
    <glyph glyph-name="quotedblbase" unicode="&#x201e;" horiz-adv-x="448" 
d="M98 -88q39 31 55 92q-12 -4 -29 -4q-38 0 -63.5 22.5t-25.5 57.5q0 36 27.5 61t64.5 25q39 0 62.5 -26.5t23.5 -67.5q0 -51 -33 -98q-32 -45 -82 -62zM298 -88q39 31 55 92q-12 -4 -29 -4q-38 0 -63.5 22.5t-25.5 57.5q0 36 27.5 61t64.5 25q39 0 62.5 -26.5t23.5 -67.5
q0 -51 -33 -98q-32 -45 -82 -62z" />
    <glyph glyph-name="bullet" unicode="&#x2022;" horiz-adv-x="354" 
d="M35 385q0 57 41 100q42 42 101 42t100 -42q42 -42 42 -100q0 -59 -42 -101q-41 -41 -100 -41q-58 0 -101 41q-41 43 -41 101z" />
    <glyph glyph-name="ellipsis" unicode="&#x2026;" horiz-adv-x="850" 
d="M211 70q-5 -33 -29 -51.5t-57 -18.5q-37 0 -63.5 22t-25.5 58t28.5 62t67.5 24q41 -3 64 -33q20 -27 15 -63zM811 70q-5 -33 -29 -51.5t-57 -18.5q-37 0 -63.5 22t-25.5 58t28.5 62t67.5 24q41 -3 64 -33q20 -27 15 -63zM511 70q-5 -33 -29 -51.5t-57 -18.5
q-37 0 -63.5 22t-25.5 58t28.5 62t67.5 24q41 -3 64 -33q20 -27 15 -63z" />
    <glyph glyph-name="perthousand" unicode="&#x2030;" horiz-adv-x="1177" 
d="M771 184q-7 -78 -58 -132q-49 -52 -115 -52q-77 0 -127 65q-46 61 -46 139q0 83 49 144q52 67 132 64q72 -2 118 -63q48 -60 48 -142q0 -15 -1 -23zM545 760h32l-324 -760h-31zM381 531q-7 -77 -58 -131q-50 -53 -116 -53q-77 0 -126 66q-46 59 -46 139q0 82 48 143
q53 68 132 65q71 -3 119 -64q48 -60 48 -141q0 -16 -1 -24zM657 103q0 191 -3 221q-4 38 -16.5 57.5t-34.5 18.5q-49 0 -57 -81q-10 -115 0 -214q5 -47 19.5 -70t39.5 -22q52 1 52 90zM267 451q0 189 -3 221q-7 76 -51 76q-49 0 -57 -81q-11 -116 0 -215q5 -47 19 -69.5
t39 -21.5q53 2 53 90zM1141 184q-7 -78 -58 -132q-49 -52 -115 -52q-77 0 -127 65q-46 61 -46 139q0 83 49 144q52 67 132 64q72 -2 118 -63q48 -60 48 -142q0 -15 -1 -23zM1027 103q0 191 -3 221q-4 38 -16.5 57.5t-34.5 18.5q-49 0 -57 -81q-10 -115 0 -214
q5 -47 19.5 -70t39.5 -22q52 1 52 90z" />
    <glyph glyph-name="Euro" unicode="&#x20ac;" horiz-adv-x="724" 
d="M709 183q0 -88 -85 -139q-74 -44 -166 -44q-128 0 -219 89q-90 88 -96 218l-127 2l-1 5q0 12 16 31l110 2q0 35 3 66l-83 1l-1 6q0 11 16 30l74 2q26 134 110 218q92 90 223 90q73 0 123 -39q53 -42 53 -113q0 -56 -39 -96t-93 -40q-41 0 -63 25t-22 68q0 49 29 82.5
t75 33.5q63 0 83 -65q-1 52 -41 87t-92 35q-78 0 -116 -110q-23 -72 -26 -175q82 0 170 -3q-2 -22 -15 -36l-156 -2l3 -65l124 -2q-1 -21 -16 -36l-104 -2q12 -101 44 -171q47 -101 127 -101q61 0 104 42q45 44 44 103q0 4 -1 19t-1 20q0 21 13 22q19 -7 19 -58z" />
    <glyph glyph-name="afii61352" unicode="&#x2116;" horiz-adv-x="1182" 
d="M923 287q-99 0 -170 68t-71 166q0 97 71 168t167 71q103 0 174 -67q73 -67 73 -168q0 -99 -73 -169q-72 -69 -171 -69zM1033 553q0 85 -13 124q-22 69 -90 69q-76 0 -100 -84q-12 -44 -12 -146t13 -140q24 -74 102 -74q102 0 102 175q0 24 -1 41t-1 35zM1154 244
q-2 -22 -15 -36q-154 -2 -226 -2q-75 0 -217 2l-1 7q0 10 16 29q104 3 214 3q111 0 229 -3zM730 754l-11 -22q-32 8 -64 8h-16q-30 -213 -36 -681q42 1 94 13l1 -10q0 -6 -6 -16q-77 -23 -202 -46q-202 290 -313 601q-9 -81 -9 -184q0 -165 22 -369q50 0 85 13
q-4 -27 -16 -44q-145 5 -224 18l5 19l81 -9q5 281 42 665q-65 -6 -106 -22q-4 11 -4 22q1 5 2 14q105 17 246 17q136 -290 277 -515q6 88 6 178q0 176 -24 331q-51 -10 -96 -26q-3 20 11 45q51 6 117 6q68 0 138 -6z" />
    <glyph glyph-name="trademark" unicode="&#x2122;" horiz-adv-x="642" 
d="M601 755h6l-5 -11h-5q-9 1 -27 -2q-2 -86 0 -258q16 2 24 -3l-2 -9q-14 2 -29 2q-43 0 -93 -9l-9 12q8 2 30 4q-2 14 -2 49q0 71 5 159q-27 -71 -93 -223q-39 92 -77 237q-11 -118 -11 -158q0 -36 4 -59q25 -2 42 1l-9 -16q-22 1 -43 4q-25 3 -42 12v6q17 -5 30 -6
q10 131 25 261h-6q-19 0 -39 -11l4 19q23 4 54 4q13 0 45 -2q34 -89 59 -175l65 164q14 8 99 8zM254 684q0 -66 -9 -69l-7 5q7 18 7 40q0 30 -16.5 50.5t-42.5 18.5h-5l-3 -252l21 3l1 -8q-45 -7 -94 -7q-18 0 -25 1l-3 15l25 -5l-1 45l3 78q2 74 4 126q-37 -4 -54 -40
q-15 -29 -12 -69l-7 2l-1 23q0 -1 0 0.5t0.5 6t1 11t1 16.5t1 21.5t1.5 28l2 32.5l9 1v-22q65 0 192 3v17l10 4q-2 -21 -1 -38q0 -9 0.5 -17.5t1 -13.5t0.5 -7z" />
    <glyph glyph-name="NULL" horiz-adv-x="0" 
 />
    <glyph glyph-name="CR" horiz-adv-x="251" 
 />
    </font>
</defs>
</svg>
